<svg xmlns="http://www.w3.org/2000/svg" xmlns:xlink="http://www.w3.org/1999/xlink" width="6028px" height="6006px" style="shape-rendering:geometricPrecision; text-rendering:geometricPrecision; image-rendering:optimizeQuality; fill-rule:evenodd; clip-rule:evenodd"><g><path style="opacity:0.999" fill="#050607" d="M 5086.5,863.5 C 5086.5,864.167 5086.83,864.5 5087.5,864.5C 5087.5,865.167 5087.83,865.5 5088.5,865.5C 5088.5,866.167 5088.83,866.5 5089.5,866.5C 5089.5,867.167 5089.83,867.5 5090.5,867.5C 5090.5,868.167 5090.83,868.5 5091.5,868.5C 5091.5,869.167 5091.83,869.5 5092.5,869.5C 5092.5,870.167 5092.83,870.5 5093.5,870.5C 5093.5,871.167 5093.83,871.5 5094.5,871.5C 5094.5,872.167 5094.83,872.5 5095.5,872.5C 5095.5,873.167 5095.83,873.5 5096.5,873.5C 5096.5,874.167 5096.83,874.5 5097.5,874.5C 5097.5,875.167 5097.83,875.5 5098.5,875.5C 5121.47,899.14 5144.81,922.473 5168.5,945.5C 5168.5,946.167 5168.83,946.5 5169.5,946.5C 5169.5,947.167 5169.83,947.5 5170.5,947.5C 5170.5,948.167 5170.83,948.5 5171.5,948.5C 5171.5,949.167 5171.83,949.5 5172.5,949.5C 5172.5,950.167 5172.83,950.5 5173.5,950.5C 5173.5,951.167 5173.83,951.5 5174.5,951.5C 5174.5,952.167 5174.83,952.5 5175.5,952.5C 5175.5,953.167 5175.83,953.5 5176.5,953.5C 5176.5,954.167 5176.83,954.5 5177.5,954.5C 5177.5,955.167 5177.83,955.5 5178.5,955.5C 5178.5,956.167 5178.83,956.5 5179.5,956.5C 5474.65,1267.29 5696.48,1625.29 5845,2030.5C 6025.76,2533.55 6070.76,3048.55 5980,3575.5C 5900.8,4009.05 5735.13,4405.05 5483,4763.5C 5401.01,4880.04 5310.17,4989.7 5210.5,5092.5C 5209.83,5092.5 5209.5,5092.83 5209.5,5093.5C 5208.83,5093.5 5208.5,5093.83 5208.5,5094.5C 5207.83,5094.5 5207.5,5094.83 5207.5,5095.5C 5206.83,5095.5 5206.5,5095.83 5206.5,5096.5C 5181.53,5121.81 5156.53,5147.14 5131.5,5172.5C 4802.58,5488.44 4419.58,5717.27 3982.5,5859C 3501.19,6011.48 3012.19,6042.14 2515.5,5951C 2141.11,5880.67 1791.78,5746.67 1467.5,5549C 1120.77,5335.65 826.603,5064.15 585,4734.5C 319.793,4366.57 142.793,3958.9 54,3511.5C 20.3268,3335.77 2.82679,3158.43 1.5,2979.5C 2.82229,2960.14 2.82229,2940.8 1.5,2921.5C 7.9796,2443.91 121.48,1993.58 342,1570.5C 545.204,1187.87 819.704,864.703 1165.5,601C 1516.84,338.719 1908.18,161.053 2339.5,68C 2705.2,-8.69049 3072.53,-17.3572 3441.5,42C 3897.17,117.437 4314.84,284.77 4694.5,544C 4833.75,639.358 4964.41,745.858 5086.5,863.5 Z"></path></g><g><path style="opacity:1" fill="#ed1b29" d="M 2910.5,153.5 C 3323.39,149.512 3719.72,228.012 4099.5,389C 4273.5,463.635 4438.17,553.635 4593.5,659C 4626.36,680.593 4658.69,702.926 4690.5,726C 4741.12,765.62 4791.45,805.62 4841.5,846C 4995.85,977.672 5135.68,1122.84 5261,1281.5C 5281.58,1308.99 5301.91,1336.66 5322,1364.5C 5324.63,1368.13 5327.63,1371.47 5331,1374.5C 5356.28,1412.77 5381.94,1450.77 5408,1488.5C 5575.62,1748.81 5699.62,2029.15 5780,2329.5C 5905.08,2809.99 5905.75,3290.65 5782,3771.5C 5728.65,3971.23 5654.65,4162.89 5560,4346.5C 5520.11,4422.63 5477.45,4496.96 5432,4569.5C 5399.45,4618.72 5366.11,4667.38 5332,4715.5C 5317.88,4733.96 5303.38,4752.12 5288.5,4770C 5286.92,4770.71 5285.42,4771.54 5284,4772.5C 5283.16,4775.69 5281.82,4778.69 5280,4781.5C 5230.71,4845.81 5178.04,4907.48 5122,4966.5C 5071.14,5017.69 5019.97,5068.53 4968.5,5119C 4844.02,5231.85 4710.69,5332.52 4568.5,5421C 4566.28,5422.76 4564.28,5424.76 4562.5,5427C 4550.72,5432.06 4539.72,5438.39 4529.5,5446C 4060.42,5723.86 3552.75,5858.86 3006.5,5851C 2700.42,5842.88 2403.08,5788.88 2114.5,5689C 2072.96,5674.73 2031.96,5659.06 1991.5,5642C 1979.5,5639 1968.17,5634.34 1957.5,5628C 1929.11,5617.31 1901.11,5605.65 1873.5,5593C 1831.37,5573 1789.04,5552.34 1746.5,5531C 1700.89,5508.02 1655.89,5483.69 1611.5,5458C 1603.29,5453.73 1594.96,5449.73 1586.5,5446C 1585.04,5444.26 1583.71,5442.42 1582.5,5440.5C 1578.38,5438.94 1574.38,5437.11 1570.5,5435C 1520.79,5403 1471.12,5371.34 1421.5,5340C 1364.27,5298.77 1307.6,5256.77 1251.5,5214C 1215.83,5184.33 1180.17,5154.67 1144.5,5125C 1063.79,5052.29 986.289,4976.12 912,4896.5C 608.821,4561.69 392.821,4175.69 264,3738.5C 167.03,3399.76 133.363,3054.76 163,2703.5C 191.78,2385.53 271.78,2081.2 403,1790.5C 429.184,1735.13 456.184,1680.13 484,1625.5C 518.487,1563.18 554.487,1501.85 592,1441.5C 607.845,1419.81 622.179,1397.15 635,1373.5C 640.333,1366.83 645.667,1360.17 651,1353.5C 721.778,1250.35 799.778,1152.69 885,1060.5C 1041.18,889.868 1215.35,742.035 1407.5,617C 1420.02,606.572 1433.68,597.905 1448.5,591C 1553.52,523.967 1663.19,464.3 1777.5,412C 1793.94,404.448 1810.6,397.448 1827.5,391C 1831.12,389.369 1834.12,387.035 1836.5,384C 1849.83,379.336 1863.16,374.67 1876.5,370C 2128.65,265.128 2390.65,198.461 2662.5,170C 2745.14,161.777 2827.8,156.277 2910.5,153.5 Z"></path></g><g><path style="opacity:1" fill="#f5e916" d="M 2964.5,281.5 C 2970.23,281.283 2975.9,281.783 2981.5,283C 2983.81,284.109 2985.31,285.943 2986,288.5C 2989.95,322.392 2991.95,356.392 2992,390.5C 2987.2,393.209 2982.04,394.709 2976.5,395C 2964.2,396.284 2951.87,396.784 2939.5,396.5C 2943.26,368.839 2932.59,349.339 2907.5,338C 2874.49,333.351 2841.49,333.685 2808.5,339C 2805.67,339.833 2803.83,341.667 2803,344.5C 2802.04,364.89 2802.71,385.223 2805,405.5C 2805.06,408.822 2806.23,411.656 2808.5,414C 2815.5,414.667 2822.5,414.667 2829.5,414C 2840.08,412.302 2847.24,406.469 2851,396.5C 2853,388.337 2854.83,380.171 2856.5,372C 2870.13,370.391 2883.8,369.724 2897.5,370C 2898.42,370.374 2899.25,370.874 2900,371.5C 2904.95,412.678 2907.28,454.011 2907,495.5C 2903.92,496.288 2900.76,496.788 2897.5,497C 2886.17,497.5 2874.84,497.667 2863.5,497.5C 2858.56,466.769 2840.56,453.936 2809.5,459C 2808.85,463.085 2808.52,467.252 2808.5,471.5C 2809.31,497.199 2810.65,522.865 2812.5,548.5C 2841.72,548.408 2870.72,545.908 2899.5,541C 2925.51,536.657 2940.34,521.491 2944,495.5C 2945.05,484.604 2946.22,473.77 2947.5,463C 2963,460.511 2978.5,460.011 2994,461.5C 2995.64,466.708 2996.64,472.041 2997,477.5C 3000.99,511.977 3002.16,546.477 3000.5,581C 2986.59,583.446 2972.59,585.113 2958.5,586C 2861.17,593.444 2763.84,600.444 2666.5,607C 2663.28,604.732 2661.44,601.566 2661,597.5C 2659.62,586.836 2659.46,576.17 2660.5,565.5C 2676.02,562.442 2691.52,559.442 2707,556.5C 2707.86,547.52 2708.36,538.52 2708.5,529.5C 2706.68,478.417 2703.51,427.417 2699,376.5C 2698.4,368.728 2697.24,361.062 2695.5,353.5C 2694.09,352.194 2692.42,351.36 2690.5,351C 2676.17,350.5 2661.84,350.333 2647.5,350.5C 2647.07,337.829 2646.9,325.163 2647,312.5C 2647.4,309.768 2648.9,307.935 2651.5,307C 2755.98,298.515 2860.32,290.015 2964.5,281.5 Z"></path></g><g><path style="opacity:1" fill="#f5e916" d="M 3044.5,281.5 C 3121.62,286.079 3198.62,292.246 3275.5,300C 3292.08,302.152 3308.41,305.485 3324.5,310C 3366.19,323.993 3381.35,352.16 3370,394.5C 3363.09,412.179 3351.26,425.346 3334.5,434C 3326.09,437.411 3317.76,440.911 3309.5,444.5C 3318.14,449.409 3325.98,455.409 3333,462.5C 3338.91,471.223 3342.24,480.89 3343,491.5C 3343.33,509.833 3343.67,528.167 3344,546.5C 3344.58,558.09 3350.42,562.256 3361.5,559C 3365.99,555.196 3368.82,550.363 3370,544.5C 3371.14,536.875 3371.64,529.208 3371.5,521.5C 3381.17,521.334 3390.84,521.5 3400.5,522C 3405.37,522.017 3408.87,524.184 3411,528.5C 3410.31,589.841 3379.48,616.007 3318.5,607C 3299.45,605.132 3282.12,598.798 3266.5,588C 3254.59,578.35 3248.42,565.85 3248,550.5C 3247.79,526.422 3246.46,502.422 3244,478.5C 3241.72,469.219 3235.89,463.719 3226.5,462C 3211.26,459.483 3195.93,458.483 3180.5,459C 3179,460.491 3178.16,462.324 3178,464.5C 3174.82,489.748 3173.15,515.082 3173,540.5C 3175.02,543.438 3177.86,545.272 3181.5,546C 3189.46,547.549 3197.46,548.882 3205.5,550C 3211.21,550.759 3215.38,553.592 3218,558.5C 3218.17,560.667 3218.33,562.833 3218.5,565C 3217.31,575.858 3215.97,586.691 3214.5,597.5C 3155.89,592.48 3097.22,587.98 3038.5,584C 3031.78,583.327 3025.11,582.327 3018.5,581C 3017.67,580.167 3016.83,579.333 3016,578.5C 3015.14,564.727 3015.97,551.061 3018.5,537.5C 3028.34,538.001 3038.17,538.667 3048,539.5C 3058.36,541.332 3065.02,537.332 3068,527.5C 3073.92,476.267 3078.92,424.934 3083,373.5C 3084.16,361.182 3084.49,348.849 3084,336.5C 3083.5,332.98 3081.66,330.48 3078.5,329C 3068.22,327.796 3057.88,327.13 3047.5,327C 3039.79,325.784 3036.46,321.284 3037.5,313.5C 3037.87,303.321 3039.37,293.321 3042,283.5C 3042.99,282.934 3043.83,282.267 3044.5,281.5 Z"></path></g><g><path style="opacity:1" fill="#f5e916" d="M 2574.5,316.5 C 2580.84,316.334 2587.18,316.5 2593.5,317C 2594.93,317.465 2596.1,318.299 2597,319.5C 2601.52,331.102 2603.85,343.102 2604,355.5C 2603.1,356.701 2601.93,357.535 2600.5,358C 2590.53,360.46 2580.53,362.793 2570.5,365C 2562.98,366.351 2559.32,370.851 2559.5,378.5C 2570.91,441.123 2583.74,503.456 2598,565.5C 2600.35,569.84 2604.02,571.507 2609,570.5C 2621.55,569.045 2634.05,567.545 2646.5,566C 2647.7,566.903 2648.53,568.069 2649,569.5C 2652.77,580.241 2654.77,591.241 2655,602.5C 2653.38,604.906 2651.21,606.739 2648.5,608C 2640.95,610.738 2633.29,613.071 2625.5,615C 2579.58,625.717 2533.58,636.05 2487.5,646C 2480.54,647.087 2473.54,647.587 2466.5,647.5C 2464.83,638.482 2463,629.482 2461,620.5C 2460.33,616.833 2460.33,613.167 2461,609.5C 2466.15,604.668 2472.32,602.168 2479.5,602C 2486.01,600.341 2491.17,596.841 2495,591.5C 2495.67,588.167 2495.67,584.833 2495,581.5C 2491.05,560.738 2486.71,540.071 2482,519.5C 2481.17,518 2480,516.833 2478.5,516C 2474.83,515.333 2471.17,515.333 2467.5,516C 2447.2,520.824 2426.87,525.491 2406.5,530C 2398.41,531.811 2390.58,534.311 2383,537.5C 2383.29,561.889 2386.62,585.889 2393,609.5C 2393.97,615.139 2397.3,617.805 2403,617.5C 2413.44,615.508 2423.94,614.341 2434.5,614C 2439.83,627.322 2442,641.155 2441,655.5C 2380.54,671.66 2319.54,685.66 2258,697.5C 2256.83,697.167 2255.67,696.833 2254.5,696.5C 2249.85,684.258 2247.68,671.591 2248,658.5C 2251.3,655.433 2255.13,653.267 2259.5,652C 2268.38,649.949 2277.04,647.282 2285.5,644C 2287.49,642.681 2288.65,640.848 2289,638.5C 2289.78,630.452 2289.44,622.452 2288,614.5C 2278.26,565.778 2268.26,517.112 2258,468.5C 2255.98,460.09 2252.98,452.09 2249,444.5C 2246.35,442.059 2243.18,441.059 2239.5,441.5C 2232.41,442.521 2225.41,444.021 2218.5,446C 2213.71,446.879 2209.05,446.545 2204.5,445C 2202.11,443.048 2200.61,440.548 2200,437.5C 2197.25,426.986 2196.25,416.32 2197,405.5C 2198.17,404.107 2199.67,403.273 2201.5,403C 2258.7,389.7 2316.03,377.034 2373.5,365C 2379.93,362.762 2383.76,364.928 2385,371.5C 2388.68,382.238 2390.68,393.238 2391,404.5C 2390.5,406.333 2389.33,407.5 2387.5,408C 2375.51,408.2 2364.68,411.7 2355,418.5C 2357.35,442.26 2362.02,465.593 2369,488.5C 2373.78,489.397 2378.62,489.231 2383.5,488C 2411.99,480.669 2440.66,474.169 2469.5,468.5C 2467.89,443.96 2463.39,419.96 2456,396.5C 2455.5,396 2455,395.5 2454.5,395C 2452.5,394.833 2450.5,394.667 2448.5,394.5C 2437.57,396.395 2426.57,397.729 2415.5,398.5C 2413.35,388.236 2411.51,377.903 2410,367.5C 2409.17,363.789 2409.34,360.122 2410.5,356.5C 2465.2,342.823 2519.87,329.49 2574.5,316.5 Z"></path></g><g><path style="opacity:1" fill="#f5e916" d="M 3456.5,322.5 C 3460.51,322.334 3464.51,322.501 3468.5,323C 3525.71,333.647 3583.05,343.647 3640.5,353C 3650.29,353.783 3654.46,358.95 3653,368.5C 3651.77,375.52 3650.44,382.52 3649,389.5C 3647.13,396.359 3642.63,399.026 3635.5,397.5C 3626.65,396.664 3617.82,395.664 3609,394.5C 3605.71,394.026 3603.04,395.026 3601,397.5C 3599.39,400.382 3598.06,403.382 3597,406.5C 3582.85,466.894 3571.02,527.727 3561.5,589C 3560.69,593.549 3562.02,597.215 3565.5,600C 3575.53,603.757 3585.86,606.423 3596.5,608C 3599.7,608.848 3602.53,610.348 3605,612.5C 3605.4,623.259 3603.4,633.592 3599,643.5C 3597.79,646.759 3595.96,649.592 3593.5,652C 3582.76,651.545 3572.1,650.212 3561.5,648C 3508.08,638.153 3454.75,627.987 3401.5,617.5C 3400.34,603.283 3402.68,589.616 3408.5,576.5C 3409.83,576.167 3411.17,575.833 3412.5,575.5C 3425.4,578.071 3438.4,579.238 3451.5,579C 3452.93,578.535 3454.1,577.701 3455,576.5C 3459.93,562.103 3463.93,547.436 3467,532.5C 3477.27,486.173 3485.6,439.507 3492,392.5C 3492.67,387.833 3492.67,383.167 3492,378.5C 3491.31,375.943 3489.81,374.109 3487.5,373C 3477.15,371.108 3466.81,369.108 3456.5,367C 3449.95,364.27 3447.78,359.437 3450,352.5C 3451.09,344.127 3452.42,335.794 3454,327.5C 3454.37,325.548 3455.2,323.882 3456.5,322.5 Z"></path></g><g><path style="opacity:1" fill="#ee1d29" d="M 3190.5,337.5 C 3208.97,338.036 3227.3,339.869 3245.5,343C 3259.59,345.429 3268.09,353.596 3271,367.5C 3271.67,375.167 3271.67,382.833 3271,390.5C 3267.63,400.066 3262.13,408.233 3254.5,415C 3234.13,415.913 3213.8,415.58 3193.5,414C 3189.41,413.383 3186.58,411.216 3185,407.5C 3184.85,384.011 3186.68,360.678 3190.5,337.5 Z"></path></g><g><path style="opacity:1" fill="#f5e916" d="M 3687.5,370.5 C 3695.96,371.159 3704.3,372.659 3712.5,375C 3808.3,401.867 3903.97,429.2 3999.5,457C 4002.66,457.937 4005.49,459.437 4008,461.5C 4008.33,464.866 4008,468.199 4007,471.5C 3998.48,504.431 3988.64,536.931 3977.5,569C 3961.78,568.113 3946.61,564.613 3932,558.5C 3933.02,541.537 3933.36,524.537 3933,507.5C 3929.14,494.308 3920.98,484.808 3908.5,479C 3901.84,474.544 3894.67,473.044 3887,474.5C 3870.06,527.641 3853.73,580.975 3838,634.5C 3833.9,646.534 3831.9,658.867 3832,671.5C 3832.35,673.848 3833.51,675.681 3835.5,677C 3844.6,680.421 3853.93,683.088 3863.5,685C 3866,686.167 3867.83,688 3869,690.5C 3869.62,695.223 3869.29,699.89 3868,704.5C 3865.86,711.242 3863.53,717.909 3861,724.5C 3859.83,725.667 3858.67,726.833 3857.5,728C 3847.63,728.362 3837.97,727.028 3828.5,724C 3780.34,709.392 3732.01,695.392 3683.5,682C 3677.99,680.609 3672.82,678.443 3668,675.5C 3667.94,661.568 3671.11,648.402 3677.5,636C 3680.17,635.333 3682.83,635.333 3685.5,636C 3694.53,637.841 3703.53,639.841 3712.5,642C 3718.84,643.248 3723.67,641.081 3727,635.5C 3729.59,631.326 3731.92,626.993 3734,622.5C 3748,576.511 3762,530.511 3776,484.5C 3780,470.177 3782.83,455.677 3784.5,441C 3771.32,439.354 3757.99,439.021 3744.5,440C 3733.17,442.582 3724.34,448.748 3718,458.5C 3710.68,468.975 3704.51,480.141 3699.5,492C 3685.21,489.259 3671.21,485.259 3657.5,480C 3656.92,479.107 3656.59,478.107 3656.5,477C 3664.05,446.669 3672.22,416.503 3681,386.5C 3682.49,380.857 3684.66,375.524 3687.5,370.5 Z"></path></g><g><path style="opacity:1" fill="#f5e916" d="M 2001.5,474.5 C 2004.62,474.642 2007.12,475.976 2009,478.5C 2015.15,488.637 2020.65,499.137 2025.5,510C 2022.17,512.667 2018.83,515.333 2015.5,518C 2003.54,521.62 1993.37,528.12 1985,537.5C 1984.33,539.5 1984.33,541.5 1985,543.5C 2014.51,608.196 2044.85,672.529 2076,736.5C 2079,743.5 2082,750.5 2085,757.5C 2085.67,759.833 2085.67,762.167 2085,764.5C 2079.38,769.45 2073.21,773.616 2066.5,777C 2044.26,788.039 2022.09,799.205 2000,810.5C 1991.42,805.793 1982.92,800.96 1974.5,796C 1916.01,758.249 1857.01,721.249 1797.5,685C 1796.21,684.51 1794.87,684.343 1793.5,684.5C 1803.43,707.706 1813.93,730.706 1825,753.5C 1835.43,774.687 1846.09,795.687 1857,816.5C 1860.47,820.989 1864.97,822.822 1870.5,822C 1881.27,817.782 1891.94,813.282 1902.5,808.5C 1910.37,817.564 1916.2,827.898 1920,839.5C 1920.67,841.833 1920.67,844.167 1920,846.5C 1913.09,851.375 1905.92,855.875 1898.5,860C 1851.2,883.982 1804.53,908.982 1758.5,935C 1723.99,958.086 1689.66,981.419 1655.5,1005C 1648.23,1009.55 1640.73,1013.72 1633,1017.5C 1629.9,1015.33 1627.23,1012.66 1625,1009.5C 1619.2,1001.4 1614.03,992.9 1609.5,984C 1615.42,976.708 1622.75,971.375 1631.5,968C 1635.52,964.057 1636.35,959.557 1634,954.5C 1623.64,944.234 1611.47,936.9 1597.5,932.5C 1572.02,948.744 1547.02,965.744 1522.5,983.5C 1522.44,997.673 1525.27,1011.34 1531,1024.5C 1532.22,1026.97 1533.88,1028.97 1536,1030.5C 1545.23,1025.47 1554.4,1020.3 1563.5,1015C 1566.08,1013.75 1568.74,1013.42 1571.5,1014C 1580.2,1023.53 1587.53,1034.03 1593.5,1045.5C 1589.92,1051.12 1585.25,1055.62 1579.5,1059C 1556.22,1074.61 1533.22,1090.61 1510.5,1107C 1502.77,1112.4 1494.77,1117.4 1486.5,1122C 1476.62,1136.22 1464.95,1148.89 1451.5,1160C 1410.54,1193.96 1369.87,1228.29 1329.5,1263C 1324.98,1265.36 1320.98,1264.69 1317.5,1261C 1309.3,1253.23 1302.3,1244.56 1296.5,1235C 1297.65,1233.18 1298.82,1231.34 1300,1229.5C 1308,1222.17 1316,1214.83 1324,1207.5C 1326.96,1203.43 1327.29,1199.1 1325,1194.5C 1287.73,1144.88 1248.56,1096.72 1207.5,1050C 1205.15,1048.16 1202.49,1046.99 1199.5,1046.5C 1195.12,1047.53 1191.12,1049.36 1187.5,1052C 1180.69,1059.14 1173.03,1065.14 1164.5,1070C 1160.49,1071.1 1156.99,1070.26 1154,1067.5C 1148.38,1059.55 1142.38,1051.88 1136,1044.5C 1134.7,1042.64 1134.37,1040.64 1135,1038.5C 1144.4,1029.55 1153.9,1020.72 1163.5,1012C 1200.09,982.083 1236.09,951.416 1271.5,920C 1276.76,915.58 1282.42,911.746 1288.5,908.5C 1298.84,916.341 1307.67,925.674 1315,936.5C 1315.67,938.5 1315.67,940.5 1315,942.5C 1306.67,950.5 1298.33,958.5 1290,966.5C 1286.25,970.7 1285.25,975.366 1287,980.5C 1320.62,1022.46 1354.62,1064.12 1389,1105.5C 1395.47,1112.97 1402.3,1120.14 1409.5,1127C 1411.65,1128.59 1413.98,1129.26 1416.5,1129C 1430.62,1119.88 1442.46,1108.38 1452,1094.5C 1459.22,1087.7 1465.22,1080.04 1470,1071.5C 1470.88,1067.89 1471.38,1064.22 1471.5,1060.5C 1470.71,1051.06 1469.21,1041.72 1467,1032.5C 1449.41,959.811 1433.24,886.811 1418.5,813.5C 1418.58,811.701 1419.08,810.034 1420,808.5C 1424.2,803.966 1428.7,799.799 1433.5,796C 1458.35,777.492 1484.01,760.159 1510.5,744C 1511.83,743.333 1513.17,743.333 1514.5,744C 1535.67,758.42 1556.67,773.087 1577.5,788C 1625.39,824.552 1674.39,859.552 1724.5,893C 1727.5,893.667 1730.5,893.667 1733.5,893C 1747.72,887.559 1761.05,880.559 1773.5,872C 1784.2,870.066 1793.03,864.899 1800,856.5C 1801.88,854.086 1802.55,851.419 1802,848.5C 1792.16,823.815 1781.49,799.482 1770,775.5C 1758.33,751.5 1746.67,727.5 1735,703.5C 1729.63,692.807 1723.46,682.64 1716.5,673C 1714.17,672.333 1711.83,672.333 1709.5,673C 1700.59,676.453 1691.93,680.453 1683.5,685C 1677.68,687.63 1672.51,686.796 1668,682.5C 1662.86,672.736 1658.69,662.569 1655.5,652C 1655.64,651.228 1655.98,650.561 1656.5,650C 1702.63,623.352 1750.13,599.186 1799,577.5C 1811.39,583.946 1823.56,590.78 1835.5,598C 1882.83,628 1930.17,658 1977.5,688C 1980.26,689.953 1983.26,691.12 1986.5,691.5C 1986.39,683.019 1983.56,675.686 1978,669.5C 1964.37,635.901 1948.37,603.568 1930,572.5C 1926.3,568.601 1921.8,567.101 1916.5,568C 1907.77,571.198 1899.44,575.198 1891.5,580C 1888.59,581.318 1885.59,581.652 1882.5,581C 1873.57,570.317 1868.07,558.15 1866,544.5C 1877.76,536.703 1889.92,529.536 1902.5,523C 1935.31,506.258 1968.31,490.092 2001.5,474.5 Z"></path></g><g><path style="opacity:1" fill="#f5e916" d="M 4111.5,515.5 C 4144.68,528.253 4177.35,542.42 4209.5,558C 4211,559.5 4212.5,561 4214,562.5C 4214.67,569.5 4214.67,576.5 4214,583.5C 4206.98,659.96 4200.48,736.46 4194.5,813C 4193.87,820.511 4195.04,827.677 4198,834.5C 4203.92,839.215 4210.42,843.049 4217.5,846C 4219.33,846.899 4220.66,848.233 4221.5,850C 4217.2,862.435 4211.7,874.269 4205,885.5C 4204.11,886.081 4203.11,886.415 4202,886.5C 4163.68,871.947 4126.18,855.447 4089.5,837C 4076.4,830.782 4063.06,825.115 4049.5,820C 4043.91,817.549 4042.08,813.383 4044,807.5C 4047.98,796.043 4053.15,785.21 4059.5,775C 4071.1,778.791 4082.77,782.624 4094.5,786.5C 4097.43,769.922 4098.76,753.255 4098.5,736.5C 4070.96,723.065 4042.96,710.731 4014.5,699.5C 4003.51,706.993 3994.34,716.326 3987,727.5C 3983.22,732.26 3983.72,736.427 3988.5,740C 3995.34,743.922 4002.34,747.588 4009.5,751C 4013.66,753.821 4015.16,757.655 4014,762.5C 4011.2,770.102 4007.86,777.435 4004,784.5C 3998.35,790.729 3991.52,792.229 3983.5,789C 3945.69,773.096 3908.36,756.096 3871.5,738C 3868.56,737.06 3867.22,735.06 3867.5,732C 3870.86,719.621 3875.86,707.954 3882.5,697C 3889.28,697.473 3895.94,698.806 3902.5,701C 3907.95,701.896 3913.28,701.563 3918.5,700C 3936.8,684.036 3954.8,667.703 3972.5,651C 4018.42,605.24 4064.76,560.074 4111.5,515.5 Z"></path></g><g><path style="opacity:1" fill="#ee1e29" d="M 4113.5,597.5 C 4112.95,623.429 4110.78,649.429 4107,675.5C 4106.69,681.824 4103.52,684.324 4097.5,683C 4083.16,677.662 4069.49,670.996 4056.5,663C 4053.92,660.108 4054.08,657.275 4057,654.5C 4074.7,634.302 4093.53,615.302 4113.5,597.5 Z"></path></g><g><path style="opacity:1" fill="#f5e916" d="M 4387.5,690.5 C 4403.86,690.217 4420.19,690.717 4436.5,692C 4474.14,700.23 4506.64,717.73 4534,744.5C 4545.37,758.061 4554.87,772.894 4562.5,789C 4564.64,789.635 4566.64,789.301 4568.5,788C 4571.83,785.333 4575.17,782.667 4578.5,780C 4580.83,779.333 4583.17,779.333 4585.5,780C 4599.32,787.49 4612.32,796.157 4624.5,806C 4604.78,837.941 4583.95,869.108 4562,899.5C 4560.94,900.899 4559.61,901.899 4558,902.5C 4544.58,895.748 4532.25,887.414 4521,877.5C 4520.22,876.271 4519.72,874.938 4519.5,873.5C 4536.45,819.895 4518.78,782.728 4466.5,762C 4447.73,757.61 4430.73,761.276 4415.5,773C 4377.05,803.05 4353.89,842.217 4346,890.5C 4340.73,920.061 4350.56,942.894 4375.5,959C 4379.28,961.225 4383.28,962.891 4387.5,964C 4395.17,964.667 4402.83,964.667 4410.5,964C 4414.17,963.443 4417.51,962.11 4420.5,960C 4428.84,949.981 4436.01,939.147 4442,927.5C 4444.38,921.757 4443.71,916.423 4440,911.5C 4434.46,906.289 4428.62,901.456 4422.5,897C 4419.57,894.577 4417.23,891.743 4415.5,888.5C 4420.5,875.521 4428.17,864.521 4438.5,855.5C 4448,860.748 4457.33,866.248 4466.5,872C 4499.33,893.915 4532.33,915.582 4565.5,937C 4571.52,941.362 4577.19,946.029 4582.5,951C 4577.53,963.944 4570.53,975.611 4561.5,986C 4559.09,986.484 4556.75,986.15 4554.5,985C 4548.67,981.919 4543,978.585 4537.5,975C 4535.35,973.41 4533.02,972.743 4530.5,973C 4522.55,979.946 4515.71,987.779 4510,996.5C 4497.67,1015.5 4485.33,1034.5 4473,1053.5C 4471.19,1056.28 4469.02,1058.78 4466.5,1061C 4461.11,1060.82 4456.11,1059.16 4451.5,1056C 4444.58,1051.62 4437.75,1047.12 4431,1042.5C 4430.68,1032.41 4431.51,1022.41 4433.5,1012.5C 4411.96,1012.79 4390.63,1010.96 4369.5,1007C 4351.65,1000.08 4334.99,991.078 4319.5,980C 4302.05,966.184 4286.22,950.684 4272,933.5C 4242.4,885.508 4238.74,835.508 4261,783.5C 4272.82,762.67 4287.32,743.837 4304.5,727C 4328.38,706.057 4356.05,693.891 4387.5,690.5 Z"></path></g><g><path style="opacity:1" fill="#050607" d="M 2904.5,702.5 C 2979.51,702.12 3054.51,702.953 3129.5,705C 3458.04,727.879 3767.71,816.212 4058.5,970C 4095.32,989.573 4131.65,1009.91 4167.5,1031C 4230.37,1070.6 4292.04,1111.93 4352.5,1155C 4559.49,1309.98 4736.32,1493.48 4883,1705.5C 5056.22,1960.31 5175.55,2238.98 5241,2541.5C 5260.65,2641.03 5274.65,2741.36 5283,2842.5C 5286.67,2954.18 5286.33,3065.85 5282,3177.5C 5272.22,3279.29 5257.22,3380.29 5237,3480.5C 5154.76,3850.98 4991.09,4178.98 4746,4464.5C 4695.34,4521.57 4642.51,4576.74 4587.5,4630C 4328.86,4869.24 4029.2,5039.24 3688.5,5140C 3313.42,5245.57 2935.75,5255.57 2555.5,5170C 2377.58,5128.47 2206.91,5067.14 2043.5,4986C 1836.05,4881.43 1647.72,4749.43 1478.5,4590C 1415.9,4527.84 1355.73,4463.67 1298,4397.5C 1081.23,4135.34 927.897,3838.67 838,3507.5C 781.702,3294.15 756.702,3077.15 763,2856.5C 772.767,2548.44 842.434,2254.77 972,1975.5C 1121.46,1657.01 1334.62,1388.84 1611.5,1171C 1664.98,1131.2 1719.31,1092.53 1774.5,1055C 1832.29,1018.6 1891.62,984.601 1952.5,953C 1958.76,949.73 1964.76,946.064 1970.5,942C 1974.46,940.909 1978.46,939.909 1982.5,939C 1983.13,937.108 1984.13,935.441 1985.5,934C 2037.25,910.456 2089.25,887.456 2141.5,865C 2231.66,829.17 2323.66,798.503 2417.5,773C 2513.76,748.682 2611.09,730.015 2709.5,717C 2744.79,713.471 2780.12,710.471 2815.5,708C 2821.92,707.541 2828.25,706.541 2834.5,705C 2857.99,704.099 2881.33,703.266 2904.5,702.5 Z"></path></g><g><path style="opacity:1" fill="#00acee" d="M 2881.5,803.5 C 3165.13,791.217 3440.79,832.051 3708.5,926C 3879.89,986.194 4040.89,1066.19 4191.5,1166C 4369.41,1282.75 4527.58,1422.92 4666,1586.5C 4869.88,1829.18 5016.21,2104.18 5105,2411.5C 5202.36,2760.18 5213.02,3111.52 5137,3465.5C 5067.76,3774.59 4937.76,4054.26 4747,4304.5C 4511.57,4606.89 4216.07,4830.06 3860.5,4974C 3765.72,5010.82 3669.05,5041.82 3570.5,5067C 3279.72,5136.68 2987.05,5145.85 2692.5,5094.5C 2410.22,5043.82 2147.56,4943.32 1904.5,4793C 1785.25,4718.67 1673.92,4633.67 1570.5,4538C 1532.03,4500.53 1493.86,4462.69 1456,4424.5C 1218.82,4167.32 1049.82,3869.66 949,3531.5C 847.281,3177.2 835.281,2819.86 913,2459.5C 952.839,2285.31 1012.51,2118.31 1092,1958.5C 1234.51,1679.26 1429.34,1442.43 1676.5,1248C 1968.28,1024.19 2296.95,883.189 2662.5,825C 2735.35,814.648 2808.35,807.481 2881.5,803.5 Z"></path></g><g><path style="opacity:1" fill="#ee1e29" d="M 1487.5,847.5 C 1488.55,847.351 1489.55,847.517 1490.5,848C 1502.34,857.416 1514.68,866.083 1527.5,874C 1538.02,882.093 1548.35,890.427 1558.5,899C 1542.95,910.887 1527.11,922.387 1511,933.5C 1507.27,928.033 1504.6,922.033 1503,915.5C 1497.51,892.875 1492.34,870.209 1487.5,847.5 Z"></path></g><g><path style="opacity:0.759" fill="#e6dc14" d="M 5179.5,956.5 C 5178.83,956.5 5178.5,956.167 5178.5,955.5C 5177.83,955.5 5177.5,955.167 5177.5,954.5C 5176.83,954.5 5176.5,954.167 5176.5,953.5C 5175.83,953.5 5175.5,953.167 5175.5,952.5C 5174.83,952.5 5174.5,952.167 5174.5,951.5C 5173.83,951.5 5173.5,951.167 5173.5,950.5C 5172.83,950.5 5172.5,950.167 5172.5,949.5C 5171.83,949.5 5171.5,949.167 5171.5,948.5C 5170.83,948.5 5170.5,948.167 5170.5,947.5C 5169.83,947.5 5169.5,947.167 5169.5,946.5C 5168.83,946.5 5168.5,946.167 5168.5,945.5C 5144.81,922.473 5121.47,899.14 5098.5,875.5C 5097.83,875.5 5097.5,875.167 5097.5,874.5C 5096.83,874.5 5096.5,874.167 5096.5,873.5C 5095.83,873.5 5095.5,873.167 5095.5,872.5C 5094.83,872.5 5094.5,872.167 5094.5,871.5C 5093.83,871.5 5093.5,871.167 5093.5,870.5C 5092.83,870.5 5092.5,870.167 5092.5,869.5C 5091.83,869.5 5091.5,869.167 5091.5,868.5C 5090.83,868.5 5090.5,868.167 5090.5,867.5C 5089.83,867.5 5089.5,867.167 5089.5,866.5C 5088.83,866.5 5088.5,866.167 5088.5,865.5C 5087.83,865.5 5087.5,865.167 5087.5,864.5C 5086.83,864.5 5086.5,864.167 5086.5,863.5C 5086.52,861.972 5087.18,861.472 5088.5,862C 5120.53,892.363 5151.53,923.696 5181.5,956C 5180.91,956.464 5180.24,956.631 5179.5,956.5 Z"></path></g><g><path style="opacity:1" fill="#f5e916" d="M 4696.5,867.5 C 4700.44,867.635 4703.77,869.135 4706.5,872C 4788.55,941.715 4869.72,1012.55 4950,1084.5C 4950.78,1085.73 4951.28,1087.06 4951.5,1088.5C 4930.55,1116.63 4907.89,1143.46 4883.5,1169C 4881.4,1171.57 4879.07,1171.9 4876.5,1170C 4869.83,1164.67 4863.17,1159.33 4856.5,1154C 4851.58,1149.59 4847.25,1144.75 4843.5,1139.5C 4847.56,1131.04 4852.4,1123.04 4858,1115.5C 4864.94,1097.93 4863.6,1080.93 4854,1064.5C 4848.62,1056.11 4842.12,1048.61 4834.5,1042C 4818.17,1027.83 4801.83,1013.67 4785.5,999.5C 4770.47,1015.03 4755.97,1031.03 4742,1047.5C 4740.33,1049.83 4738.67,1052.17 4737,1054.5C 4736.29,1056.97 4736.63,1059.3 4738,1061.5C 4746.28,1070.39 4756.44,1075.72 4768.5,1077.5C 4773.2,1077.1 4777.54,1075.6 4781.5,1073C 4787.31,1068.69 4792.98,1064.19 4798.5,1059.5C 4810.23,1069.91 4822.23,1079.91 4834.5,1089.5C 4807.39,1122.11 4779.73,1154.28 4751.5,1186C 4748.48,1186.16 4745.81,1185.16 4743.5,1183C 4734.2,1175.37 4725.2,1167.37 4716.5,1159C 4723.29,1150.08 4727.63,1140.08 4729.5,1129C 4728.4,1120.63 4725.23,1113.13 4720,1106.5C 4716.48,1103.28 4713.32,1099.78 4710.5,1096C 4707.25,1092.84 4703.92,1092.84 4700.5,1096C 4684.96,1113.2 4669.79,1130.7 4655,1148.5C 4650.93,1153.21 4649.43,1158.54 4650.5,1164.5C 4654.51,1166.51 4658.18,1169.01 4661.5,1172C 4678.85,1189.49 4697.85,1204.83 4718.5,1218C 4726.79,1222.76 4735.62,1225.93 4745,1227.5C 4751.81,1227.12 4757.98,1224.95 4763.5,1221C 4775.93,1211.24 4787.76,1200.74 4799,1189.5C 4811.59,1198.76 4822.93,1209.42 4833,1221.5C 4833.67,1222.83 4833.67,1224.17 4833,1225.5C 4809.18,1257.32 4783.18,1287.32 4755,1315.5C 4707.98,1277.16 4662.15,1237.33 4617.5,1196C 4585.5,1168.67 4553.5,1141.33 4521.5,1114C 4516.33,1108.83 4511.17,1103.67 4506,1098.5C 4504.69,1096.87 4503.86,1095.03 4503.5,1093C 4504.33,1089.51 4505.83,1086.35 4508,1083.5C 4515.35,1075.99 4522.85,1068.65 4530.5,1061.5C 4539.02,1068.52 4547.69,1075.36 4556.5,1082C 4559.53,1084.21 4562.87,1085.71 4566.5,1086.5C 4569.03,1086.24 4571.36,1085.4 4573.5,1084C 4589.76,1068.4 4604.6,1051.57 4618,1033.5C 4644.75,1003.42 4670.75,972.754 4696,941.5C 4699.97,937.01 4700.3,932.343 4697,927.5C 4695.33,925.167 4693.67,922.833 4692,920.5C 4684.22,912.71 4676.39,905.043 4668.5,897.5C 4677.39,887.003 4686.73,877.003 4696.5,867.5 Z"></path></g><g><path style="opacity:1" fill="#050607" d="M 2917.5,996.5 C 2976.91,995.885 3036.24,997.718 3095.5,1002C 3178.8,1008.06 3259.13,1026.73 3336.5,1058C 3398.14,1083.22 3451.97,1119.72 3498,1167.5C 3505.62,1177.46 3513.62,1187.12 3522,1196.5C 3536.26,1219.35 3551.26,1241.68 3567,1263.5C 3571.88,1268.05 3577.04,1272.21 3582.5,1276C 3594.47,1282.49 3606.81,1288.15 3619.5,1293C 3636.14,1294.52 3652.8,1294.85 3669.5,1294C 3682.15,1293.01 3693.48,1288.67 3703.5,1281C 3723.34,1262.48 3744.34,1245.48 3766.5,1230C 3815.2,1201.68 3864.2,1201.35 3913.5,1229C 3947.22,1249.72 3972.05,1278.22 3988,1314.5C 3998.39,1341.68 4008.39,1369.01 4018,1396.5C 4023.33,1410.49 4033.16,1419.66 4047.5,1424C 4054.39,1426.14 4061.39,1427.8 4068.5,1429C 4107.44,1433.28 4146.44,1436.94 4185.5,1440C 4222.41,1443.63 4256.07,1455.96 4286.5,1477C 4319.87,1499.7 4345.37,1529.2 4363,1565.5C 4381.89,1613.31 4373.72,1655.81 4338.5,1693C 4323.61,1706.45 4306.28,1715.11 4286.5,1719C 4261.53,1720.86 4236.53,1722.19 4211.5,1723C 4193.76,1723.72 4176.42,1726.72 4159.5,1732C 4135.48,1742.02 4118.98,1759.19 4110,1783.5C 4105.52,1815.09 4115.68,1840.59 4140.5,1860C 4155.43,1867.42 4171.1,1869.42 4187.5,1866C 4207.33,1861.08 4225.33,1852.42 4241.5,1840C 4261.21,1823.81 4280.54,1807.14 4299.5,1790C 4318.42,1773.77 4339.42,1760.77 4362.5,1751C 4384.64,1743.9 4407.31,1741.57 4430.5,1744C 4447.44,1744.9 4463.44,1749.23 4478.5,1757C 4515.91,1774.02 4549.91,1796.02 4580.5,1823C 4626.65,1864.79 4666.48,1911.62 4700,1963.5C 4758.43,2057.36 4808.77,2155.7 4851,2258.5C 4855.89,2270.28 4860.22,2282.28 4864,2294.5C 4864.5,2297.15 4864.66,2299.81 4864.5,2302.5C 4859.67,2302.61 4855,2301.78 4850.5,2300C 4815.07,2287.45 4781.41,2271.45 4749.5,2252C 4730.78,2239.3 4712.78,2225.64 4695.5,2211C 4656.02,2175.43 4616.35,2140.1 4576.5,2105C 4548.52,2081.33 4517.85,2061.66 4484.5,2046C 4473.73,2041.41 4462.73,2037.41 4451.5,2034C 4408.96,2021.42 4365.62,2013.09 4321.5,2009C 4277.51,2007.47 4233.51,2007.14 4189.5,2008C 4137.48,2013.67 4086.81,2025.34 4037.5,2043C 3991.44,2059.35 3945.78,2076.68 3900.5,2095C 3849.03,2115.16 3796.36,2131.49 3742.5,2144C 3646.89,2163.15 3557.23,2147.82 3473.5,2098C 3393,2044.17 3355.17,1968.67 3360,1871.5C 3364.68,1828.18 3380.34,1789.51 3407,1755.5C 3433.14,1726.72 3464.64,1705.89 3501.5,1693C 3565.33,1670.83 3630.99,1661.17 3698.5,1664C 3740.5,1669 3782.5,1674 3824.5,1679C 3845.62,1680.31 3866.62,1679.31 3887.5,1676C 3913.51,1671.27 3934.35,1658.44 3950,1637.5C 3952.85,1632.83 3954.19,1627.83 3954,1622.5C 3951.08,1614.25 3945.92,1607.75 3938.5,1603C 3930.33,1598.94 3922,1595.28 3913.5,1592C 3899.18,1587.5 3884.84,1583.17 3870.5,1579C 3862.01,1574.92 3853.68,1570.59 3845.5,1566C 3826.33,1550.82 3822.5,1532.32 3834,1510.5C 3845.59,1491.67 3856.92,1472.67 3868,1453.5C 3878.66,1423.33 3868.16,1405.83 3836.5,1401C 3808.51,1398.08 3782.84,1404.42 3759.5,1420C 3753.5,1424.67 3747.5,1429.33 3741.5,1434C 3715.74,1462.1 3688.4,1488.43 3659.5,1513C 3634.74,1531.05 3608.08,1546.05 3579.5,1558C 3544.64,1571.43 3508.64,1575.76 3471.5,1571C 3441.15,1562.99 3417.99,1545.49 3402,1518.5C 3391.22,1499.82 3384.22,1479.82 3381,1458.5C 3378.86,1431.2 3377.19,1403.86 3376,1376.5C 3374.82,1352.23 3370.49,1328.57 3363,1305.5C 3355.67,1285.64 3342.5,1271.14 3323.5,1262C 3313.25,1257.92 3303.58,1258.92 3294.5,1265C 3277.96,1279.59 3267.13,1297.75 3262,1319.5C 3259.11,1330.3 3257.78,1341.3 3258,1352.5C 3257,1437.83 3256.34,1523.16 3256,1608.5C 3255.67,1843.5 3255.33,2078.5 3255,2313.5C 3247.5,2340.35 3232.66,2362.18 3210.5,2379C 3182.4,2399.39 3151.73,2415.05 3118.5,2426C 3068.16,2443 3017.82,2460 2967.5,2477C 2950.64,2483.01 2935.8,2492.17 2923,2504.5C 2911.31,2520.97 2913.47,2535.47 2929.5,2548C 2940.01,2555.09 2951.01,2561.42 2962.5,2567C 2968.54,2569.76 2974.87,2571.43 2981.5,2572C 2993.78,2577.99 3006.78,2581.66 3020.5,2583C 3076.84,2591.62 3133.17,2591.62 3189.5,2583C 3249.06,2572.87 3302.4,2549.21 3349.5,2512C 3362.5,2500.33 3375.5,2488.67 3388.5,2477C 3440.65,2423.84 3494.32,2372.51 3549.5,2323C 3583.05,2293.55 3619.71,2268.55 3659.5,2248C 3722.93,2213.41 3789.93,2188.08 3860.5,2172C 3925.4,2156.79 3991.06,2146.46 4057.5,2141C 4237.77,2135.92 4409.77,2170.92 4573.5,2246C 4674.37,2293.53 4762.21,2358.7 4837,2441.5C 4950.53,2574.09 5001.86,2728.09 4991,2903.5C 4984.19,2996.95 4954.19,3081.95 4901,3158.5C 4828.81,3252.85 4733.31,3307.35 4614.5,3322C 4517.69,3333.06 4423.69,3321.39 4332.5,3287C 4268.94,3263.83 4216.44,3225.66 4175,3172.5C 4153.04,3141.24 4136.37,3107.24 4125,3070.5C 4116.69,3036.66 4109.03,3002.66 4102,2968.5C 4094.58,2935.9 4081.92,2905.56 4064,2877.5C 4035.99,2842.94 4000.49,2832.11 3957.5,2845C 3938.39,2848.78 3927.55,2860.28 3925,2879.5C 3923.88,2898.94 3924.88,2918.28 3928,2937.5C 3935.28,2968.59 3941.28,2999.92 3946,3031.5C 3948.33,3051.9 3948,3072.23 3945,3092.5C 3936.6,3120.57 3918.43,3139.07 3890.5,3148C 3883.29,3149.98 3875.96,3151.31 3868.5,3152C 3797.6,3155.05 3728.93,3144.05 3662.5,3119C 3640.71,3111.1 3619.37,3102.1 3598.5,3092C 3529.64,3057.74 3461.3,3022.74 3393.5,2987C 3341.24,2960.7 3286.9,2939.7 3230.5,2924C 3144.99,2902.74 3058.33,2896.07 2970.5,2904C 2925.29,2911.63 2881.29,2923.63 2838.5,2940C 2809.07,2951.29 2782.23,2966.79 2758,2986.5C 2757,2988.17 2756,2989.83 2755,2991.5C 2754.28,2993.11 2754.45,2994.61 2755.5,2996C 2767.37,3000.78 2779.7,3003.78 2792.5,3005C 2812.1,3007.66 2831.76,3009.66 2851.5,3011C 2908.86,3014.65 2966.19,3018.65 3023.5,3023C 3060.43,3025.99 3096.77,3032.32 3132.5,3042C 3167.62,3050.8 3197.79,3067.97 3223,3093.5C 3232.64,3104.16 3240.31,3116.16 3246,3129.5C 3250.44,3145.85 3252.77,3162.51 3253,3179.5C 3254.12,3216.82 3254.79,3254.16 3255,3291.5C 3255.67,3638.5 3255.67,3985.5 3255,4332.5C 3254.66,4377.51 3253.99,4422.51 3253,4467.5C 3253.55,4532.9 3228.05,4585.4 3176.5,4625C 3135.71,4653.83 3090.38,4671.49 3040.5,4678C 2953.2,4690.62 2867.53,4683.62 2783.5,4657C 2759.36,4649.4 2735.36,4641.4 2711.5,4633C 2693.63,4628.46 2675.46,4626.63 2657,4627.5C 2633.06,4625.09 2610.56,4629.59 2589.5,4641C 2574.45,4650.59 2564.95,4664.09 2561,4681.5C 2552.66,4727.34 2569.83,4759.17 2612.5,4777C 2634.42,4785.97 2657.09,4792.31 2680.5,4796C 2776.52,4807.62 2871.52,4801.95 2965.5,4779C 2989.84,4772.11 3013.5,4763.44 3036.5,4753C 3082.6,4731.12 3128.27,4708.45 3173.5,4685C 3305.28,4620.56 3444.61,4587.89 3591.5,4587C 3641.5,4585.46 3691.5,4584.13 3741.5,4583C 3796.26,4578.3 3847.26,4561.97 3894.5,4534C 3948.38,4503.46 3991.88,4461.96 4025,4409.5C 4037.88,4386.78 4041.55,4362.78 4036,4337.5C 4029.39,4322.58 4018.56,4311.75 4003.5,4305C 3981.59,4296.75 3958.93,4292.08 3935.5,4291C 3918.48,4290.21 3901.48,4290.54 3884.5,4292C 3857,4295.71 3829.67,4300.37 3802.5,4306C 3750.7,4318.62 3698.7,4330.28 3646.5,4341C 3606.32,4346.69 3565.99,4348.02 3525.5,4345C 3474.18,4336.31 3436.35,4309.14 3412,4263.5C 3361.49,4163.74 3366.83,4067.07 3428,3973.5C 3461.64,3927.23 3496.98,3882.23 3534,3838.5C 3551.17,3816.33 3567.17,3793.33 3582,3769.5C 3613.83,3715.32 3606.33,3667.49 3559.5,3626C 3545.5,3614.66 3530.17,3605.32 3513.5,3598C 3495.28,3591.55 3477.28,3584.55 3459.5,3577C 3402.01,3549.89 3374.85,3504.39 3378,3440.5C 3382.37,3405.73 3393.7,3373.4 3412,3343.5C 3431.28,3312.52 3455.11,3285.35 3483.5,3262C 3543.16,3212.1 3612.16,3185.77 3690.5,3183C 3791.22,3181.14 3887.55,3200.81 3979.5,3242C 4107.44,3299.3 4176.61,3398.13 4187,3538.5C 4189.12,3568.82 4191.12,3599.16 4193,3629.5C 4194.17,3640.19 4195.5,3650.86 4197,3661.5C 4201.62,3681.06 4213.79,3688.89 4233.5,3685C 4268.63,3677.52 4295.8,3658.68 4315,3628.5C 4328.53,3602.78 4341.53,3576.78 4354,3550.5C 4365.81,3526.07 4381.64,3504.57 4401.5,3486C 4421.44,3470.19 4443.78,3458.86 4468.5,3452C 4516.28,3446.81 4553.11,3464.31 4579,3504.5C 4589.35,3521.88 4596.35,3540.54 4600,3560.5C 4603.24,3580.58 4606.9,3600.58 4611,3620.5C 4614.56,3637.12 4622.39,3651.29 4634.5,3663C 4646.9,3670.55 4659.9,3671.55 4673.5,3666C 4688.19,3658.31 4700.02,3647.48 4709,3633.5C 4718.7,3618.44 4725.36,3602.1 4729,3584.5C 4733.91,3554.92 4738.24,3525.25 4742,3495.5C 4747.45,3460.28 4761.78,3429.28 4785,3402.5C 4806.93,3377.57 4833.1,3358.41 4863.5,3345C 4882.38,3335.9 4901.71,3327.9 4921.5,3321C 4938.14,3314.56 4947.64,3320.06 4950,3337.5C 4926.28,3367.58 4906.62,3400.24 4891,3435.5C 4880.57,3461.88 4874.24,3489.21 4872,3517.5C 4869.65,3556.52 4866.98,3595.52 4864,3634.5C 4861.59,3655.57 4857.25,3676.23 4851,3696.5C 4831.48,3757.74 4806.15,3816.41 4775,3872.5C 4753.4,3910.44 4726.23,3943.94 4693.5,3973C 4667.03,3993.4 4637.36,4007.07 4604.5,4014C 4584.41,4016.64 4565.74,4012.64 4548.5,4002C 4518.62,3983.41 4496.78,3957.91 4483,3925.5C 4466.08,3887.14 4455.08,3847.14 4450,3805.5C 4445.97,3780.81 4431.47,3769.65 4406.5,3772C 4398.44,3773.8 4391.1,3777.13 4384.5,3782C 4371.87,3792.29 4359.54,3802.96 4347.5,3814C 4318.74,3843.76 4289.08,3872.42 4258.5,3900C 4240.19,3915.17 4220.19,3927.83 4198.5,3938C 4175.72,3949.03 4151.72,3953.69 4126.5,3952C 4102.81,3947.9 4083.97,3936.07 4070,3916.5C 4057.77,3898.03 4048.77,3878.03 4043,3856.5C 4032.74,3813.79 4027.58,3770.45 4027.5,3726.5C 4028.36,3697.13 4029.86,3667.8 4032,3638.5C 4034.53,3608.32 4037.03,3578.16 4039.5,3548C 4039.74,3494.84 4020.41,3450.51 3981.5,3415C 3942.61,3384.02 3899.27,3376.02 3851.5,3391C 3830.65,3400.52 3814.15,3415.02 3802,3434.5C 3797.5,3447.65 3799.17,3459.98 3807,3471.5C 3810.09,3476.01 3813.42,3480.35 3817,3484.5C 3844.53,3510.94 3871.86,3537.6 3899,3564.5C 3912.42,3578.99 3923.08,3595.32 3931,3613.5C 3941.09,3640.9 3940.76,3668.24 3930,3695.5C 3914.96,3735.18 3890.8,3768.01 3857.5,3794C 3829.61,3812.56 3802.28,3831.89 3775.5,3852C 3746.59,3879.64 3726.76,3912.8 3716,3951.5C 3708.67,3995.68 3725.5,4026.51 3766.5,4044C 3790.06,4054.39 3814.73,4059.72 3840.5,4060C 3880.88,4062.83 3920.55,4058.83 3959.5,4048C 3998.95,4036.22 4038.61,4025.22 4078.5,4015C 4093.96,4011.26 4109.63,4008.92 4125.5,4008C 4152.83,4007.33 4180.17,4007.33 4207.5,4008C 4272.2,4011.11 4329.2,4033.45 4378.5,4075C 4419.25,4112.9 4437.42,4159.73 4433,4215.5C 4427.59,4259.06 4414.92,4300.39 4395,4339.5C 4375.62,4378.96 4351.28,4414.96 4322,4447.5C 4261.87,4509.97 4193.04,4560.47 4115.5,4599C 4056.02,4629.24 3994.35,4654.24 3930.5,4674C 3888.78,4687.6 3846.78,4700.26 3804.5,4712C 3716.42,4734.35 3628.42,4757.02 3540.5,4780C 3523.36,4785.27 3506.36,4790.93 3489.5,4797C 3385,4839.72 3278,4875.06 3168.5,4903C 3118.85,4914.8 3068.85,4924.8 3018.5,4933C 2883.76,4952.93 2749.43,4950.6 2615.5,4926C 2511.7,4904.18 2411.04,4872.51 2313.5,4831C 2282.07,4817.8 2253.07,4800.8 2226.5,4780C 2169.83,4727.54 2166.99,4672.37 2218,4614.5C 2256.23,4576.45 2301.07,4548.61 2352.5,4531C 2387.17,4518.42 2422.84,4510.08 2459.5,4506C 2497.47,4502.07 2535.47,4498.4 2573.5,4495C 2606.42,4492.1 2638.42,4485.1 2669.5,4474C 2682.45,4468.62 2693.95,4461.12 2704,4451.5C 2710.74,4443.02 2716.74,4434.02 2722,4424.5C 2722.67,4339.83 2722.67,4255.17 2722,4170.5C 2718.96,4167.07 2715.46,4164.23 2711.5,4162C 2678.14,4154.94 2646.8,4160.27 2617.5,4178C 2585.7,4197.13 2558.2,4221.29 2535,4250.5C 2499.95,4294.55 2465.28,4338.88 2431,4383.5C 2405.58,4413.59 2378.75,4442.42 2350.5,4470C 2229.3,4577.15 2088.64,4616.15 1928.5,4587C 1838.49,4570.15 1758.16,4533.15 1687.5,4476C 1678.31,4466.81 1669.14,4457.64 1660,4448.5C 1617.31,4400.49 1602.98,4344.82 1617,4281.5C 1623.06,4254.71 1635.39,4231.38 1654,4211.5C 1666.7,4198.47 1679.03,4185.13 1691,4171.5C 1699.56,4161.58 1705.56,4150.25 1709,4137.5C 1709.86,4126.39 1705.7,4117.55 1696.5,4111C 1693.35,4109.4 1690.02,4108.4 1686.5,4108C 1670.14,4107.15 1653.8,4107.48 1637.5,4109C 1612.99,4113.88 1588.66,4119.54 1564.5,4126C 1448,4151.78 1355.16,4116.62 1286,4020.5C 1242.55,3943.95 1223.55,3861.62 1229,3773.5C 1238.71,3657.85 1298.87,3583.01 1409.5,3549C 1439.95,3540.65 1470.95,3535.65 1502.5,3534C 1531.82,3532.53 1561.15,3532.2 1590.5,3533C 1624.44,3534.45 1657.78,3539.79 1690.5,3549C 1712.4,3554.89 1734.07,3561.56 1755.5,3569C 1808.61,3590.39 1861.61,3612.06 1914.5,3634C 1970.66,3654.72 2027.99,3671.39 2086.5,3684C 2170.21,3698.11 2254.21,3700.11 2338.5,3690C 2418.98,3676.97 2495.98,3652.97 2569.5,3618C 2616.26,3596.13 2661.26,3571.46 2704.5,3544C 2705.67,3542.83 2706.83,3541.67 2708,3540.5C 2705.53,3537.1 2702.03,3534.6 2697.5,3533C 2623.37,3497.28 2546.04,3470.61 2465.5,3453C 2374.46,3432.6 2282.46,3418.27 2189.5,3410C 2180.17,3409.51 2176.17,3404.68 2177.5,3395.5C 2176.04,3388.92 2178.37,3384.42 2184.5,3382C 2348.16,3357.59 2507.49,3316.59 2662.5,3259C 2675.4,3254.22 2688.06,3248.88 2700.5,3243C 2701.73,3242.22 2702.73,3241.22 2703.5,3240C 2703.17,3239.5 2702.83,3239 2702.5,3238.5C 2621.66,3195.38 2535.99,3165.88 2445.5,3150C 2357.33,3134.25 2268.66,3122.08 2179.5,3113.5C 2179.33,3106.49 2179.5,3099.49 2180,3092.5C 2181.25,3089.62 2183.42,3087.79 2186.5,3087C 2266.91,3073.2 2344.24,3049.53 2418.5,3016C 2440.32,3004.92 2461.99,2993.59 2483.5,2982C 2537.5,2950 2591.5,2918 2645.5,2886C 2694.04,2859.89 2743.71,2836.23 2794.5,2815C 2837.53,2798.91 2881.53,2786.24 2926.5,2777C 2955.82,2772.36 2985.32,2770.53 3015,2771.5C 3065.13,2771.42 3114.96,2775.25 3164.5,2783C 3192.18,2787.22 3219.85,2791.56 3247.5,2796C 3371.93,2818.87 3496.26,2842.2 3620.5,2866C 3642.06,2869.25 3663.72,2870.25 3685.5,2869C 3701.28,2867.31 3716.28,2862.97 3730.5,2856C 3739.63,2849.87 3745.13,2841.37 3747,2830.5C 3747.79,2822.12 3747.45,2813.79 3746,2805.5C 3738.11,2773.7 3731.11,2741.7 3725,2709.5C 3718.66,2673.37 3716.99,2637.04 3720,2600.5C 3730.98,2512.65 3776.82,2450.82 3857.5,2415C 3925.55,2386.99 3995.89,2378.66 4068.5,2390C 4118.53,2402.18 4163.53,2424.18 4203.5,2456C 4269.58,2515.54 4297.41,2589.7 4287,2678.5C 4281.95,2715.69 4273.29,2752.03 4261,2787.5C 4239.82,2858.64 4253.49,2921.98 4302,2977.5C 4353.85,3031.67 4417.35,3062.17 4492.5,3069C 4530.99,3071.98 4567.66,3065.31 4602.5,3049C 4652.34,3018.41 4681.51,2973.91 4690,2915.5C 4697.33,2854.78 4692.33,2795.12 4675,2736.5C 4663.85,2692.35 4646.85,2650.69 4624,2611.5C 4586.05,2553.88 4538.88,2505.05 4482.5,2465C 4354.35,2375.28 4211.68,2327.62 4054.5,2322C 4005.32,2319.91 3956.32,2321.91 3907.5,2328C 3832.31,2338.82 3764.98,2367.49 3705.5,2414C 3694.83,2422.67 3684.17,2431.33 3673.5,2440C 3619.87,2489.62 3569.04,2541.79 3521,2596.5C 3498.5,2619 3476,2641.5 3453.5,2664C 3424.34,2690.16 3392.67,2712.82 3358.5,2732C 3306.55,2759.05 3251.55,2768.71 3193.5,2761C 3150.32,2753.27 3107.98,2742.27 3066.5,2728C 2987.21,2701.23 2907.54,2675.9 2827.5,2652C 2796.37,2644.11 2765.03,2637.11 2733.5,2631C 2677.87,2623.62 2622.54,2625.29 2567.5,2636C 2546.75,2641.02 2526.09,2646.35 2505.5,2652C 2454.35,2668.27 2403.01,2683.94 2351.5,2699C 2231.44,2732.44 2110.44,2736.44 1988.5,2711C 1904.29,2689.72 1827.29,2653.72 1757.5,2603C 1732.25,2583.76 1707.59,2563.76 1683.5,2543C 1637.89,2499.39 1592.89,2455.06 1548.5,2410C 1524.4,2386.22 1499.4,2363.56 1473.5,2342C 1457.31,2328.9 1439.31,2318.9 1419.5,2312C 1399,2305.68 1378.33,2305.01 1357.5,2310C 1344.52,2314.17 1331.85,2318.84 1319.5,2324C 1314.06,2318.56 1309.39,2312.56 1305.5,2306C 1307.45,2303.05 1309.78,2300.38 1312.5,2298C 1346.56,2271.48 1385.23,2256.32 1428.5,2252.5C 1454.58,2254.02 1479.91,2259.18 1504.5,2268C 1518.73,2273.45 1532.73,2279.45 1546.5,2286C 1581.52,2304.51 1616.85,2322.51 1652.5,2340C 1677.97,2350.62 1704.3,2358.28 1731.5,2363C 1758.01,2365.58 1784.35,2364.25 1810.5,2359C 1840.78,2352.41 1871.11,2346.08 1901.5,2340C 1977.3,2327.69 2047.64,2342.03 2112.5,2383C 2129.07,2394.23 2145.07,2406.23 2160.5,2419C 2185.13,2441.3 2209.47,2463.97 2233.5,2487C 2251.24,2503.36 2270.24,2518.03 2290.5,2531C 2304.21,2538.69 2318.55,2545.02 2333.5,2550C 2339.11,2551.32 2344.77,2552.32 2350.5,2553C 2381.21,2554.1 2411.88,2553.43 2442.5,2551C 2464.63,2546.29 2486.3,2539.96 2507.5,2532C 2570.8,2508.68 2630.8,2479.02 2687.5,2443C 2699.67,2434.83 2709.83,2424.67 2718,2412.5C 2724.89,2400.67 2725.23,2388.67 2719,2376.5C 2705.62,2357.8 2688.12,2344.3 2666.5,2336C 2637.76,2326.38 2608.43,2319.05 2578.5,2314C 2487.42,2298.15 2396.42,2281.81 2305.5,2265C 2293.91,2261.27 2290.08,2253.44 2294,2241.5C 2296.87,2238.54 2300.37,2236.7 2304.5,2236C 2375.63,2222.63 2445.96,2205.97 2515.5,2186C 2563.73,2172.37 2610.06,2154.04 2654.5,2131C 2675.01,2119.83 2693.17,2105.66 2709,2088.5C 2718.16,2077.52 2722.82,2064.85 2723,2050.5C 2725.25,2021.47 2724.91,1992.47 2722,1963.5C 2721.62,1944.56 2713.78,1929.72 2698.5,1919C 2680.01,1913.34 2662.01,1914.67 2644.5,1923C 2564.05,1968.56 2482.05,2011.56 2398.5,2052C 2300.69,2097.28 2200.35,2136.28 2097.5,2169C 2006.17,2196.6 1913.17,2216.27 1818.5,2228C 1730.4,2237.32 1642.4,2236.65 1554.5,2226C 1493.97,2216.93 1436.63,2198.27 1382.5,2170C 1340.61,2147.11 1308.45,2114.61 1286,2072.5C 1282.47,2063.49 1280.47,2054.16 1280,2044.5C 1279.33,2025.5 1279.33,2006.5 1280,1987.5C 1285.16,1961.68 1294.83,1937.68 1309,1915.5C 1358.63,1841.27 1426.79,1792.43 1513.5,1769C 1543.57,1760.6 1574.24,1756.6 1605.5,1757C 1634.87,1756.11 1664.2,1756.77 1693.5,1759C 1711.02,1761.77 1728.35,1765.44 1745.5,1770C 1777.78,1780.43 1810.45,1789.43 1843.5,1797C 1893.37,1805.96 1942.7,1803.62 1991.5,1790C 2015.33,1780.51 2033.16,1764.34 2045,1741.5C 2058.23,1698.19 2048.39,1661.02 2015.5,1630C 1973.47,1591.06 1923.81,1575.73 1866.5,1584C 1833.84,1587.55 1803.51,1597.89 1775.5,1615C 1759.67,1625.75 1743.67,1636.25 1727.5,1646.5C 1715.18,1560.93 1733.01,1482.26 1781,1410.5C 1816.28,1362.56 1861.11,1326.39 1915.5,1302C 2026.78,1251.21 2141.11,1243.21 2258.5,1278C 2281.94,1285.36 2305.27,1293.03 2328.5,1301C 2392.74,1325.19 2457.74,1347.19 2523.5,1367C 2550.7,1374.77 2578.36,1380.11 2606.5,1383C 2622.17,1383.67 2637.83,1383.67 2653.5,1383C 2699.7,1380.47 2723.03,1356.14 2723.5,1310C 2723.76,1302.69 2722.92,1295.52 2721,1288.5C 2710.3,1266.47 2694.13,1249.63 2672.5,1238C 2642.99,1222.27 2611.99,1210.27 2579.5,1202C 2520.36,1186.81 2460.36,1176.81 2399.5,1172C 2350.52,1169.74 2301.52,1168.24 2252.5,1167.5C 2250.82,1159.58 2250.32,1151.58 2251,1143.5C 2255.09,1141.21 2259.25,1139.04 2263.5,1137C 2431.75,1072.41 2605.42,1029.41 2784.5,1008C 2828.95,1003.66 2873.28,999.824 2917.5,996.5 Z"></path></g><g><path style="opacity:1" fill="#f5e916" d="M 1010.5,1171.5 C 1014.19,1172.18 1017.52,1173.68 1020.5,1176C 1028.51,1182.68 1035.85,1190.01 1042.5,1198C 1034.4,1207.7 1026.9,1217.87 1020,1228.5C 1017.66,1234.12 1018.66,1239.12 1023,1243.5C 1067.93,1286.77 1113.77,1328.94 1160.5,1370C 1162.97,1370.71 1165.3,1370.37 1167.5,1369C 1181.84,1354.67 1194.68,1339.17 1206,1322.5C 1211.25,1313.66 1216.25,1304.66 1221,1295.5C 1224.5,1287.03 1224.17,1278.69 1220,1270.5C 1213.26,1257.42 1204.59,1245.76 1194,1235.5C 1192.3,1233.44 1191.14,1231.11 1190.5,1228.5C 1200.69,1214.46 1211.86,1201.13 1224,1188.5C 1254.49,1215.99 1284.65,1243.82 1314.5,1272C 1307.61,1282.27 1300.11,1292.1 1292,1301.5C 1275.67,1319.17 1259.33,1336.83 1243,1354.5C 1200.63,1401.87 1158.63,1449.54 1117,1497.5C 1111.45,1503.05 1105.95,1508.55 1100.5,1514C 1098.83,1514.67 1097.17,1514.67 1095.5,1514C 1087.08,1508.25 1079.25,1501.75 1072,1494.5C 1070.37,1492.55 1069.2,1490.38 1068.5,1488C 1069.51,1485.48 1070.67,1482.98 1072,1480.5C 1079.29,1471.42 1086.45,1462.26 1093.5,1453C 1085.2,1443.7 1076.53,1434.7 1067.5,1426C 1030.23,1393.41 993.568,1360.07 957.5,1326C 952.109,1320.98 945.775,1318.98 938.5,1320C 928.983,1329.02 919.316,1337.85 909.5,1346.5C 897.878,1339.21 888.211,1329.88 880.5,1318.5C 884.753,1311.41 889.586,1304.75 895,1298.5C 926.628,1261.87 958.628,1225.54 991,1189.5C 997.096,1182.9 1003.6,1176.9 1010.5,1171.5 Z"></path></g><g><path style="opacity:1" fill="#f5e916" d="M 5044.5,1290.5 C 5072.41,1289.98 5099.07,1295.48 5124.5,1307C 5130.39,1311.11 5136.72,1314.45 5143.5,1317C 5155.97,1328.47 5168.14,1340.3 5180,1352.5C 5205.19,1380.2 5218.35,1412.87 5219.5,1450.5C 5224.68,1450.47 5229.85,1450.13 5235,1449.5C 5238.75,1449.32 5242.25,1450.16 5245.5,1452C 5253.49,1460.32 5260.32,1469.49 5266,1479.5C 5267.32,1482.43 5267.98,1485.43 5268,1488.5C 5254.95,1497.54 5242.45,1507.38 5230.5,1518C 5228.11,1519.86 5225.45,1521.19 5222.5,1522C 5209.75,1534.2 5196.08,1545.2 5181.5,1555C 5180.5,1555.67 5179.5,1555.67 5178.5,1555C 5166.98,1542.78 5157.31,1529.28 5149.5,1514.5C 5150.05,1512.39 5150.89,1510.39 5152,1508.5C 5188.99,1465.97 5185.83,1426.8 5142.5,1391C 5136.99,1387.25 5130.99,1384.58 5124.5,1383C 5104.47,1380.54 5085.47,1383.87 5067.5,1393C 5039.25,1406.58 5015.09,1425.41 4995,1449.5C 4982.87,1464.89 4976.04,1482.39 4974.5,1502C 4976.51,1529.04 4989.18,1549.37 5012.5,1563C 5027.24,1571.4 5042.9,1573.73 5059.5,1570C 5070.38,1566.56 5081.04,1562.56 5091.5,1558C 5093.5,1557.33 5095.5,1557.33 5097.5,1558C 5108.84,1568.67 5117.84,1581 5124.5,1595C 5124.37,1596.63 5123.87,1598.13 5123,1599.5C 5095.63,1622.47 5064.46,1629.97 5029.5,1622C 4996.66,1611.49 4968.83,1593.33 4946,1567.5C 4928.76,1548.05 4914.76,1526.38 4904,1502.5C 4884.87,1435.19 4901.37,1378.35 4953.5,1332C 4979.87,1309.48 5010.2,1295.65 5044.5,1290.5 Z"></path></g><g><path style="opacity:1" fill="#f5e916" d="M 868.5,1410.5 C 931.455,1413.05 980.288,1440.38 1015,1492.5C 1026.01,1509.21 1032.01,1527.54 1033,1547.5C 1033.67,1562.17 1033.67,1576.83 1033,1591.5C 1029.22,1614.73 1021.22,1636.4 1009,1656.5C 990.93,1688.25 967.43,1715.41 938.5,1738C 894.932,1767.48 848.265,1773.48 798.5,1756C 763.044,1741.21 734.878,1717.71 714,1685.5C 699.438,1657.58 693.771,1627.91 697,1596.5C 699.904,1566.45 709.571,1538.79 726,1513.5C 739.88,1490.95 756.713,1470.78 776.5,1453C 789.646,1442.93 803.313,1433.59 817.5,1425C 826.787,1422.53 835.787,1419.19 844.5,1415C 852.58,1413.16 860.58,1411.66 868.5,1410.5 Z"></path></g><g><path style="opacity:1" fill="#00acee" d="M 2230.5,1415.5 C 2301.44,1412.1 2369.1,1425.27 2433.5,1455C 2460.62,1468.06 2487.62,1481.39 2514.5,1495C 2554.22,1512.81 2595.89,1522.48 2639.5,1524C 2664.18,1526.25 2687.18,1533.58 2708.5,1546C 2735.72,1566.28 2747.88,1593.45 2745,1627.5C 2740.42,1666.49 2724.26,1699.65 2696.5,1727C 2686.08,1736.76 2675.08,1745.76 2663.5,1754C 2543.82,1831.03 2419.49,1900.7 2290.5,1963C 2231.63,1989.27 2171.96,2013.6 2111.5,2036C 2033.59,2064.15 1953.59,2083.81 1871.5,2095C 1815.05,2102.93 1758.72,2102.27 1702.5,2093C 1669.7,2087.73 1639.03,2076.73 1610.5,2060C 1585.97,2043.8 1568.47,2021.97 1558,1994.5C 1551.39,1947.12 1570.55,1915.29 1615.5,1899C 1624.1,1895.01 1633.1,1893.35 1642.5,1894C 1675.53,1900.84 1708.53,1907.84 1741.5,1915C 1767.34,1919.08 1793.34,1921.41 1819.5,1922C 1960.4,1933.01 2097.4,1915.01 2230.5,1868C 2304.63,1841.13 2370.96,1801.8 2429.5,1750C 2472.7,1709.63 2506.37,1662.46 2530.5,1608.5C 2529.5,1608.17 2528.5,1607.83 2527.5,1607.5C 2498.29,1614.66 2468.62,1617.66 2438.5,1616.5C 2395.7,1617.93 2354.03,1611.77 2313.5,1598C 2273.69,1585.59 2236.03,1568.59 2200.5,1547C 2180.86,1534.69 2163.69,1519.53 2149,1501.5C 2144.46,1494.96 2140.79,1487.96 2138,1480.5C 2133,1455.33 2142.17,1437.49 2165.5,1427C 2186.67,1419.58 2208.34,1415.74 2230.5,1415.5 Z"></path></g><g><path style="opacity:1" fill="#ee1c29" d="M 805.5,1506.5 C 829.469,1505.49 852.469,1509.66 874.5,1519C 900.168,1531.36 923.668,1546.86 945,1565.5C 956.034,1578.23 963.367,1592.9 967,1609.5C 969.437,1653.07 948.77,1675.74 905,1677.5C 896.476,1678.28 888.643,1676.45 881.5,1672C 875.923,1671.61 870.59,1670.27 865.5,1668C 829.603,1652.15 799.436,1628.99 775,1598.5C 758.079,1574.51 757.412,1550.17 773,1525.5C 781.337,1514.59 792.171,1508.26 805.5,1506.5 Z"></path></g><g><path style="opacity:1" fill="#f5e916" d="M 5288.5,1527.5 C 5291.42,1527.46 5294.09,1528.29 5296.5,1530C 5300.04,1534.24 5303.2,1538.74 5306,1543.5C 5355.67,1631.83 5405.33,1720.17 5455,1808.5C 5460.1,1815.55 5459.6,1822.05 5453.5,1828C 5425.48,1845.35 5396.82,1861.68 5367.5,1877C 5365.1,1877.63 5363.26,1876.8 5362,1874.5C 5353.67,1862.67 5346.5,1850.17 5340.5,1837C 5340.99,1834.5 5342.32,1832.5 5344.5,1831C 5376.2,1813.57 5385.03,1788.07 5371,1754.5C 5360.76,1733.03 5349.76,1712.03 5338,1691.5C 5336.29,1689.24 5334.45,1687.07 5332.5,1685C 5331.67,1684.83 5330.83,1684.67 5330,1684.5C 5320.96,1688.53 5312.12,1693.03 5303.5,1698C 5290.67,1705.58 5278,1713.42 5265.5,1721.5C 5270.52,1731.02 5276.52,1739.85 5283.5,1748C 5290.1,1751.38 5297.1,1752.38 5304.5,1751C 5312.15,1748.76 5319.81,1748.43 5327.5,1750C 5335.28,1759.39 5341.11,1769.89 5345,1781.5C 5345.67,1782.83 5345.67,1784.17 5345,1785.5C 5339.95,1790.27 5334.45,1794.44 5328.5,1798C 5298.66,1815.42 5268.66,1832.59 5238.5,1849.5C 5235.12,1846.29 5232.29,1842.62 5230,1838.5C 5226,1830.5 5222,1822.5 5218,1814.5C 5217.33,1813.17 5217.33,1811.83 5218,1810.5C 5224.3,1805.2 5230.3,1799.53 5236,1793.5C 5239.36,1786.2 5240.36,1778.53 5239,1770.5C 5237.08,1761.84 5233.92,1753.67 5229.5,1746C 5227.83,1745.33 5226.17,1745.33 5224.5,1746C 5218.71,1748.39 5213.05,1751.06 5207.5,1754C 5192.02,1764.13 5176.02,1773.46 5159.5,1782C 5156.26,1784.22 5154.26,1787.22 5153.5,1791C 5164.87,1818.59 5179.71,1844.09 5198,1867.5C 5205.07,1876.28 5213.9,1882.44 5224.5,1886C 5234.84,1887.27 5244.84,1885.93 5254.5,1882C 5262.34,1878.28 5270.34,1874.94 5278.5,1872C 5280.17,1871.33 5281.83,1871.33 5283.5,1872C 5292.06,1882.95 5299.23,1894.78 5305,1907.5C 5305.67,1909.5 5305.67,1911.5 5305,1913.5C 5302.8,1916.04 5300.3,1918.21 5297.5,1920C 5271.84,1934.5 5246.5,1949.5 5221.5,1965C 5216.06,1968.05 5210.4,1970.55 5204.5,1972.5C 5201.93,1971.44 5199.77,1969.77 5198,1967.5C 5189.67,1953.5 5181.33,1939.5 5173,1925.5C 5135.73,1858.58 5098.07,1791.91 5060,1725.5C 5051.64,1710.78 5043.81,1695.78 5036.5,1680.5C 5038.64,1676.52 5041.64,1673.36 5045.5,1671C 5053.45,1665.94 5061.95,1662.11 5071,1659.5C 5071.83,1659.67 5072.67,1659.83 5073.5,1660C 5075.45,1662.07 5077.29,1664.24 5079,1666.5C 5083.77,1674.93 5088.94,1683.1 5094.5,1691C 5097.7,1692.48 5101.04,1692.82 5104.5,1692C 5121.24,1684.46 5137.57,1676.13 5153.5,1667C 5190.5,1645.5 5227.16,1623.5 5263.5,1601C 5268.56,1598.12 5271.89,1593.95 5273.5,1588.5C 5273.31,1586.42 5272.81,1584.42 5272,1582.5C 5266.7,1571.39 5261.53,1560.23 5256.5,1549C 5265.97,1540.1 5276.63,1532.93 5288.5,1527.5 Z"></path></g><g><path style="opacity:1" fill="#f5e916" d="M 598.5,1752.5 C 601.568,1752.55 604.568,1753.05 607.5,1754C 624.747,1762.97 642.413,1770.97 660.5,1778C 673.145,1783.65 685.145,1790.32 696.5,1798C 698.01,1799.35 699.01,1801.02 699.5,1803C 694.025,1817.12 687.358,1830.62 679.5,1843.5C 623.82,1834.9 588.653,1857.56 574,1911.5C 571.916,1930.91 576.916,1948.24 589,1963.5C 600.169,1976.35 613.335,1986.51 628.5,1994C 653.961,2006.99 680.961,2014.15 709.5,2015.5C 726.897,2015.65 742.897,2011.15 757.5,2002C 776.222,1985.17 783.389,1964.33 779,1939.5C 777.292,1934.59 774.458,1930.42 770.5,1927C 759.897,1921.36 748.897,1916.69 737.5,1913C 730.382,1911.14 724.882,1913.31 721,1919.5C 717.426,1927.65 713.093,1935.32 708,1942.5C 706.503,1944.68 704.503,1946.01 702,1946.5C 690.673,1943.42 680.173,1938.59 670.5,1932C 669.106,1931.04 668.439,1929.71 668.5,1928C 690.568,1876.7 714.401,1826.2 740,1776.5C 741.467,1773.73 743.3,1771.23 745.5,1769C 758.803,1772.4 771.303,1777.9 783,1785.5C 780.134,1796.08 775.967,1806.25 770.5,1816C 777.167,1821.33 783.833,1826.67 790.5,1832C 805.166,1837.56 819.499,1843.89 833.5,1851C 845.646,1856.57 857.313,1862.9 868.5,1870C 863.589,1882.66 858.255,1895.16 852.5,1907.5C 842.188,1908.5 831.855,1908.83 821.5,1908.5C 826.174,1933.07 826.674,1957.74 823,1982.5C 811.908,2016.88 794.908,2047.88 772,2075.5C 722.25,2122.34 665.084,2133.84 600.5,2110C 592.837,2106.17 585.504,2101.84 578.5,2097C 575.624,2096.56 572.957,2095.56 570.5,2094C 507.302,2038.7 491.469,1971.86 523,1893.5C 534.163,1867.35 550.329,1844.85 571.5,1826C 575.674,1823.41 580.007,1821.08 584.5,1819C 586.908,1815.96 587.074,1812.79 585,1809.5C 581.487,1805.32 577.987,1801.16 574.5,1797C 579.589,1784.66 585.089,1772.49 591,1760.5C 593.028,1757.31 595.528,1754.64 598.5,1752.5 Z"></path></g><g><path style="opacity:1" fill="#f5e916" d="M 5487.5,1884.5 C 5489.47,1884.26 5491.3,1884.59 5493,1885.5C 5511.45,1933.18 5528.12,1981.52 5543,2030.5C 5543.67,2032.5 5543.67,2034.5 5543,2036.5C 5525.15,2061.52 5506.82,2086.19 5488,2110.5C 5461,2143.5 5434,2176.5 5407,2209.5C 5405.99,2211.02 5405.49,2212.69 5405.5,2214.5C 5413.73,2213.26 5421.73,2211.09 5429.5,2208C 5456.83,2198 5484.17,2188 5511.5,2178C 5520.14,2175.26 5527.98,2171.1 5535,2165.5C 5535.17,2164 5535.33,2162.5 5535.5,2161C 5533.42,2150.08 5530.92,2139.25 5528,2128.5C 5527.33,2125.5 5527.33,2122.5 5528,2119.5C 5540.85,2113.04 5554.35,2109.38 5568.5,2108.5C 5585.71,2156 5601.37,2204 5615.5,2252.5C 5612.18,2257.64 5607.51,2261.14 5601.5,2263C 5593.38,2266.04 5585.21,2268.87 5577,2271.5C 5575.08,2268.66 5573.41,2265.66 5572,2262.5C 5568.89,2252.94 5565.22,2243.61 5561,2234.5C 5559.23,2231.06 5556.56,2228.72 5553,2227.5C 5512.28,2240.11 5472.11,2254.28 5432.5,2270C 5401.49,2278.34 5371.16,2288.67 5341.5,2301C 5333.06,2303.48 5324.56,2303.98 5316,2302.5C 5306.27,2274.64 5296.93,2246.64 5288,2218.5C 5287.33,2216.5 5287.33,2214.5 5288,2212.5C 5294.62,2202.88 5301.62,2193.55 5309,2184.5C 5351.76,2133.08 5393.76,2081.08 5435,2028.5C 5436.41,2026.35 5437.24,2024.02 5437.5,2021.5C 5432.97,2021.27 5428.63,2022.1 5424.5,2024C 5398.06,2034.26 5371.4,2043.92 5344.5,2053C 5330.27,2058.11 5316.27,2063.78 5302.5,2070C 5296.63,2072.86 5293.63,2077.53 5293.5,2084C 5294.84,2092.69 5297.01,2101.19 5300,2109.5C 5300.82,2112.55 5300.65,2115.55 5299.5,2118.5C 5287.76,2124.86 5275.42,2129.86 5262.5,2133.5C 5261.83,2133.17 5261.17,2132.83 5260.5,2132.5C 5259,2128.83 5257.5,2125.17 5256,2121.5C 5241.09,2077.44 5226.59,2033.27 5212.5,1989C 5212.83,1987.83 5213.17,1986.67 5213.5,1985.5C 5225.05,1977.71 5237.72,1973.21 5251.5,1972C 5253.36,1973.56 5254.86,1975.39 5256,1977.5C 5259.41,1988.07 5263.41,1998.4 5268,2008.5C 5269.99,2010.74 5272.49,2011.74 5275.5,2011.5C 5291.92,2008.53 5307.92,2004.03 5323.5,1998C 5367.24,1982.2 5410.91,1966.2 5454.5,1950C 5458.17,1948.33 5460.33,1945.5 5461,1941.5C 5461.67,1938.17 5461.67,1934.83 5461,1931.5C 5457.89,1920.86 5455.23,1910.19 5453,1899.5C 5463.93,1893.03 5475.43,1888.03 5487.5,1884.5 Z"></path></g><g><path style="opacity:1" fill="#f5e916" d="M 444.5,2099.5 C 453.385,2100.18 462.052,2102.01 470.5,2105C 475.029,2106.51 479.195,2108.68 483,2111.5C 483.667,2113.5 483.667,2115.5 483,2117.5C 480.263,2127.95 477.763,2138.45 475.5,2149C 476.657,2156.49 480.991,2161.16 488.5,2163C 558.138,2183.16 627.805,2203.16 697.5,2223C 702.229,2224.78 706.729,2226.95 711,2229.5C 705.408,2259.62 697.742,2289.29 688,2318.5C 686.939,2321.56 685.106,2324.06 682.5,2326C 609.366,2348.27 536.033,2369.93 462.5,2391C 458.839,2391.83 455.505,2393.33 452.5,2395.5C 457.26,2398.14 462.26,2400.31 467.5,2402C 510.429,2415.44 553.929,2426.61 598,2435.5C 602.44,2436.39 605.44,2434.72 607,2430.5C 610.867,2420.57 614.533,2410.57 618,2400.5C 622.825,2396.05 628.325,2395.21 634.5,2398C 642.608,2399.77 650.275,2402.61 657.5,2406.5C 658.969,2408.19 659.635,2410.19 659.5,2412.5C 646.567,2461.23 632.234,2509.56 616.5,2557.5C 612.812,2558.62 609.146,2558.45 605.5,2557C 595.51,2554.63 586.01,2551.13 577,2546.5C 576.333,2543.5 576.333,2540.5 577,2537.5C 579.615,2529.99 581.615,2522.32 583,2514.5C 583.81,2509.74 583.476,2505.08 582,2500.5C 580.773,2498.27 578.939,2496.77 576.5,2496C 528.95,2481.93 481.284,2468.26 433.5,2455C 421.268,2451.69 408.935,2448.86 396.5,2446.5C 392.965,2446.35 390.132,2447.68 388,2450.5C 383.548,2459.86 379.881,2469.52 377,2479.5C 375.545,2482.91 373.712,2486.08 371.5,2489C 360.535,2488.26 349.868,2485.93 339.5,2482C 337.951,2480.79 336.785,2479.29 336,2477.5C 335.333,2473.17 335.333,2468.83 336,2464.5C 338.843,2452.13 341.843,2439.8 345,2427.5C 354.155,2396.55 363.155,2365.55 372,2334.5C 372.959,2327.72 376.459,2322.89 382.5,2320C 392.489,2316.67 402.489,2313.34 412.5,2310C 472.476,2292.4 532.476,2274.9 592.5,2257.5C 588.093,2253.96 583.093,2251.46 577.5,2250C 547.7,2242.13 518.033,2233.8 488.5,2225C 477.874,2221.33 467.207,2221 456.5,2224C 455.667,2224.83 454.833,2225.67 454,2226.5C 449.941,2236.01 446.274,2245.68 443,2255.5C 441.877,2258.25 440.377,2260.75 438.5,2263C 429.737,2260.61 420.737,2258.94 411.5,2258C 401.732,2255.9 398.232,2250.07 401,2240.5C 412.935,2194.43 426.269,2148.76 441,2103.5C 442.032,2101.97 443.199,2100.64 444.5,2099.5 Z"></path></g><g><path style="opacity:1" fill="#f5e916" d="M 5625.5,2302.5 C 5628.32,2302.08 5630.49,2303.08 5632,2305.5C 5634.96,2314.67 5637.29,2324.01 5639,2333.5C 5652.67,2411.83 5666.33,2490.17 5680,2568.5C 5684.32,2591.4 5687.65,2614.4 5690,2637.5C 5653.84,2646.5 5617.34,2654.17 5580.5,2660.5C 5579.5,2660.17 5578.5,2659.83 5577.5,2659.5C 5573.15,2643.76 5570.65,2627.76 5570,2611.5C 5585.93,2606.07 5601.09,2598.91 5615.5,2590C 5629.54,2573.87 5632.87,2555.87 5625.5,2536C 5622.96,2534.95 5620.29,2534.45 5617.5,2534.5C 5562.87,2544.77 5508.2,2554.94 5453.5,2565C 5445.15,2566.2 5437.15,2568.53 5429.5,2572C 5427.95,2573.21 5426.78,2574.71 5426,2576.5C 5425.68,2591.52 5426.18,2606.52 5427.5,2621.5C 5415.32,2621.24 5403.32,2622.57 5391.5,2625.5C 5389.57,2625.46 5387.74,2625.13 5386,2624.5C 5379.35,2592.63 5373.35,2560.63 5368,2528.5C 5364.22,2504.46 5360.22,2480.46 5356,2456.5C 5354.43,2446.86 5353.43,2437.19 5353,2427.5C 5355.96,2423.95 5359.8,2422.12 5364.5,2422C 5374.47,2420.57 5384.47,2419.91 5394.5,2420C 5396.58,2428.41 5398.42,2436.91 5400,2445.5C 5401.41,2450.74 5403.41,2455.74 5406,2460.5C 5408.87,2463.89 5412.54,2465.22 5417,2464.5C 5432.9,2462.49 5448.74,2459.99 5464.5,2457C 5509.25,2448.58 5553.92,2439.92 5598.5,2431C 5603.78,2429.89 5606.78,2426.72 5607.5,2421.5C 5606.03,2405.52 5599.36,2392.36 5587.5,2382C 5583.46,2379.43 5579.12,2377.43 5574.5,2376C 5559.19,2373.54 5543.86,2371.54 5528.5,2370C 5523.25,2356.34 5521.08,2342.17 5522,2327.5C 5523.34,2324.91 5525.51,2323.41 5528.5,2323C 5561.11,2316.85 5593.45,2310.01 5625.5,2302.5 Z"></path></g><g><path style="opacity:1" fill="#050607" d="M 1291.5,2365.5 C 1324.31,2363.69 1355.64,2369.52 1385.5,2383C 1419.33,2401.17 1441.83,2428.67 1453,2465.5C 1454.3,2489.94 1453.3,2514.27 1450,2538.5C 1443.87,2565.34 1438.54,2592.34 1434,2619.5C 1431.37,2637.15 1431.03,2654.82 1433,2672.5C 1438.23,2681.04 1445.73,2686.54 1455.5,2689C 1466.17,2689.67 1476.83,2689.67 1487.5,2689C 1522.47,2686.62 1557.47,2685.12 1592.5,2684.5C 1654.13,2684.3 1714.8,2691.8 1774.5,2707C 1832.43,2723.12 1884.1,2750.46 1929.5,2789C 1959.54,2817.7 1983.37,2850.87 2001,2888.5C 2007.5,2902.5 2013.16,2916.83 2018,2931.5C 2018.85,2935.63 2018.52,2939.63 2017,2943.5C 2011.46,2948.92 2005.29,2950.09 1998.5,2947C 1987.86,2937.36 1977.53,2927.36 1967.5,2917C 1936.66,2887.92 1899.99,2871.25 1857.5,2867C 1816.44,2862.06 1775.44,2862.39 1734.5,2868C 1705.74,2874.05 1679.07,2885.05 1654.5,2901C 1648.7,2905.8 1643.2,2910.97 1638,2916.5C 1626.95,2930.55 1616.28,2944.88 1606,2959.5C 1583.3,2989.21 1556.46,3014.37 1525.5,3035C 1449.51,3081.19 1381.01,3072.03 1320,3007.5C 1303.38,2987.29 1290.05,2964.95 1280,2940.5C 1273.94,2924.72 1267.61,2909.05 1261,2893.5C 1252.63,2877.51 1239.3,2869.17 1221,2868.5C 1208.35,2870.24 1196.51,2874.41 1185.5,2881C 1169.68,2891.24 1153.02,2899.91 1135.5,2907C 1091.51,2918.34 1056.01,2905.84 1029,2869.5C 1011.81,2842.28 1001.15,2812.61 997,2780.5C 986.615,2701.95 996.948,2626.29 1028,2553.5C 1050.98,2501.36 1085.48,2458.53 1131.5,2425C 1159.93,2407.95 1189.6,2393.28 1220.5,2381C 1243.71,2373.06 1267.37,2367.89 1291.5,2365.5 Z"></path></g><g><path style="opacity:1" fill="#f5e916" d="M 435.5,2559.5 C 467.815,2558.46 498.815,2564.3 528.5,2577C 567.554,2597.21 592.72,2628.71 604,2671.5C 608.229,2691.62 609.563,2711.95 608,2732.5C 607.129,2773.66 596.462,2811.99 576,2847.5C 550.439,2887.34 513.939,2909.51 466.5,2914C 426.988,2918.81 389.988,2911.47 355.5,2892C 321.167,2866.63 300.333,2832.79 293,2790.5C 283.766,2730.67 294.766,2675.01 326,2623.5C 339.137,2606 354.637,2590.83 372.5,2578C 392.476,2567.98 413.476,2561.81 435.5,2559.5 Z"></path></g><g><path style="opacity:1" fill="#ee1c29" d="M 433.5,2671.5 C 454.941,2670.96 476.274,2672.13 497.5,2675C 520.706,2680.17 539.539,2692 554,2710.5C 565.943,2732.7 564.943,2754.37 551,2775.5C 541.783,2785.86 530.617,2793.36 517.5,2798C 469.693,2812.55 422.693,2810.21 376.5,2791C 343.366,2775.96 331.533,2750.79 341,2715.5C 345.043,2707.46 350.543,2700.63 357.5,2695C 380.708,2680.04 406.041,2672.2 433.5,2671.5 Z"></path></g><g><path style="opacity:1" fill="#f5e916" d="M 5688.5,2687.5 C 5691.85,2687.33 5695.18,2687.5 5698.5,2688C 5699.67,2688.5 5700.5,2689.33 5701,2690.5C 5703.85,2804.83 5706.68,2919.17 5709.5,3033.5C 5691.81,3033.84 5674.15,3034.68 5656.5,3036C 5636.5,3036.5 5616.5,3036.67 5596.5,3036.5C 5596.5,3019.17 5596.5,3001.83 5596.5,2984.5C 5609.19,2984.27 5621.52,2982.11 5633.5,2978C 5646.83,2971.5 5655,2961 5658,2946.5C 5658.89,2941.53 5659.55,2936.53 5660,2931.5C 5660.79,2903.16 5661.63,2874.83 5662.5,2846.5C 5636.83,2846.59 5611.16,2846.93 5585.5,2847.5C 5584.94,2857.96 5585.78,2868.3 5588,2878.5C 5590.44,2885.93 5595.27,2891.1 5602.5,2894C 5608.87,2895.09 5615.21,2896.42 5621.5,2898C 5623.67,2898.83 5625.17,2900.33 5626,2902.5C 5627.3,2917.14 5627.8,2931.8 5627.5,2946.5C 5590.64,2947.07 5553.81,2948.4 5517,2950.5C 5502.54,2953.38 5496.71,2947.54 5499.5,2933C 5500,2923.5 5500.5,2914 5501,2904.5C 5515.71,2904.31 5527.37,2898.31 5536,2886.5C 5537.28,2884.28 5538.28,2881.95 5539,2879.5C 5539.5,2870.17 5539.67,2860.84 5539.5,2851.5C 5511.79,2851.13 5484.13,2851.96 5456.5,2854C 5454.45,2858.57 5453.28,2863.41 5453,2868.5C 5451.68,2897.81 5454.02,2926.81 5460,2955.5C 5463.53,2971.03 5473.03,2980.53 5488.5,2984C 5503.06,2986.49 5517.73,2987.99 5532.5,2988.5C 5533.2,3005.82 5533.54,3023.16 5533.5,3040.5C 5493.18,3041.92 5452.84,3042.92 5412.5,3043.5C 5410.29,3022.91 5409.13,3002.24 5409,2981.5C 5406.96,2887.84 5405.46,2794.17 5404.5,2700.5C 5418.84,2700.33 5433.17,2700.5 5447.5,2701C 5448.4,2714.1 5449.23,2727.27 5450,2740.5C 5450.4,2743.23 5451.9,2745.07 5454.5,2746C 5508.52,2746.53 5562.52,2745.53 5616.5,2743C 5624.19,2742.64 5631.86,2741.98 5639.5,2741C 5644.4,2740.48 5649.07,2739.14 5653.5,2737C 5655.81,2735.36 5657.31,2733.2 5658,2730.5C 5658.33,2717.17 5658.67,2703.83 5659,2690.5C 5668.94,2689.56 5678.77,2688.56 5688.5,2687.5 Z"></path></g><g><path style="opacity:1" fill="#050607" d="M 989.5,2890.5 C 996.231,2889.45 1000.73,2892.11 1003,2898.5C 1010.19,2931.4 1020.19,2963.4 1033,2994.5C 1045.27,3022.23 1062.77,3046.06 1085.5,3066C 1115.16,3087.66 1148.49,3097.66 1185.5,3096C 1210.21,3096.01 1234.88,3097.01 1259.5,3099C 1298.11,3101.97 1332.77,3114.97 1363.5,3138C 1380.8,3154.64 1399.8,3168.97 1420.5,3181C 1462.17,3202.67 1498.33,3195.83 1529,3160.5C 1547.58,3137.01 1565.91,3113.35 1584,3089.5C 1627.32,3038.41 1681.16,3003.24 1745.5,2984C 1782.01,2974.33 1819.01,2971.99 1856.5,2977C 1876.51,2978.87 1896.17,2982.53 1915.5,2988C 1944.37,3000.43 1971.71,3015.43 1997.5,3033C 2020.22,3052.05 2039.72,3073.88 2056,3098.5C 2091.92,3156.8 2093.58,3216.14 2061,3276.5C 2043.57,3306.94 2020.74,3332.77 1992.5,3354C 1934.67,3396.91 1870.67,3427.58 1800.5,3446C 1692.64,3474.88 1583.31,3482.21 1472.5,3468C 1392.15,3456.44 1316.48,3431.1 1245.5,3392C 1119.17,3317.65 1037.67,3209.15 1001,3066.5C 988.496,3021.64 980.829,2975.97 978,2929.5C 977.333,2919.17 977.333,2908.83 978,2898.5C 978.346,2896.15 979.513,2894.32 981.5,2893C 984.31,2892.22 986.977,2891.38 989.5,2890.5 Z"></path></g><g><path style="opacity:1" fill="#f5e916" d="M 555.5,2931.5 C 561.509,2931.33 567.509,2931.5 573.5,2932C 574.333,2932.83 575.167,2933.67 576,2934.5C 582.228,2992.19 586.728,3050.03 589.5,3108C 589.478,3111.09 589.145,3114.09 588.5,3117C 574.901,3120.43 561.235,3121.1 547.5,3119C 545.683,3117.2 544.516,3115.03 544,3112.5C 543.84,3105.44 543.173,3098.44 542,3091.5C 539.874,3087.18 536.374,3085.02 531.5,3085C 525.5,3084.33 519.5,3084.33 513.5,3085C 462.171,3090.13 410.837,3095.13 359.5,3100C 358.328,3100.42 357.328,3101.09 356.5,3102C 362.874,3104.93 369.54,3106.93 376.5,3108C 442.221,3120.74 507.887,3133.74 573.5,3147C 579.314,3148.2 584.981,3149.87 590.5,3152C 593.016,3162.63 594.516,3173.47 595,3184.5C 595.575,3198.52 596.408,3212.52 597.5,3226.5C 597.167,3227.83 596.833,3229.17 596.5,3230.5C 566.166,3242.17 536.166,3254.67 506.5,3268C 466.884,3282.1 427.884,3297.76 389.5,3315C 385.124,3316.56 381.458,3319.06 378.5,3322.5C 436.858,3318.72 495.191,3313.55 553.5,3307C 554.301,3296.55 555.134,3286.05 556,3275.5C 557.167,3270.33 560.333,3267.17 565.5,3266C 575.5,3265.33 585.5,3265.33 595.5,3266C 599.566,3269.5 601.732,3274 602,3279.5C 604.798,3325.82 607.298,3372.15 609.5,3418.5C 594.723,3418.06 580.057,3419.06 565.5,3421.5C 565.053,3405.59 562.886,3389.92 559,3374.5C 557.829,3373.11 556.329,3372.27 554.5,3372C 545.146,3371.5 535.812,3371.83 526.5,3373C 480.867,3377.39 435.2,3381.39 389.5,3385C 379.774,3385.34 370.441,3387.34 361.5,3391C 359.19,3392.64 357.69,3394.8 357,3397.5C 356.667,3408.83 356.333,3420.17 356,3431.5C 355.036,3438.13 351.202,3441.63 344.5,3442C 333.85,3442.91 323.184,3443.41 312.5,3443.5C 307.698,3382.21 303.365,3320.87 299.5,3259.5C 299.435,3256.38 299.935,3253.38 301,3250.5C 306.306,3246.43 312.139,3243.26 318.5,3241C 361.674,3223.28 405.007,3205.94 448.5,3189C 452.133,3187.63 455.467,3185.8 458.5,3183.5C 452.329,3181.21 445.995,3179.37 439.5,3178C 395.877,3169.41 352.211,3161.08 308.5,3153C 302.737,3152.04 298.237,3149.21 295,3144.5C 293.198,3139.63 291.865,3134.63 291,3129.5C 285.284,3072.28 282.117,3014.95 281.5,2957.5C 295.667,2954.42 310.001,2952.42 324.5,2951.5C 324.334,2961.51 324.5,2971.51 325,2981.5C 325.352,2988.06 328.519,2992.56 334.5,2995C 391.596,2992.27 448.596,2987.94 505.5,2982C 513.937,2981.24 522.27,2979.9 530.5,2978C 531.956,2975.73 532.79,2973.23 533,2970.5C 533.333,2958.5 533.667,2946.5 534,2934.5C 541.26,2933.47 548.427,2932.47 555.5,2931.5 Z"></path></g><g><path style="opacity:0.742" fill="#0183b6" d="M 1.5,2921.5 C 2.82229,2940.8 2.82229,2960.14 1.5,2979.5C 0.166667,2960.17 0.166667,2940.83 1.5,2921.5 Z"></path></g><g><path style="opacity:0.719" fill="#f5ea15" d="M 6027.5,2967.5 C 6027.5,2985.5 6027.5,3003.5 6027.5,3021.5C 6025.96,3015.07 6025.13,3008.4 6025,3001.5C 6024.33,2986.5 6024.33,2971.5 6025,2956.5C 6026.01,2960.24 6026.85,2963.91 6027.5,2967.5 Z"></path></g><g><path style="opacity:0.649" fill="#00adef" d="M 6027.5,3031.5 C 6027.5,3047.5 6027.5,3063.5 6027.5,3079.5C 6026.73,3080.26 6026.23,3081.26 6026,3082.5C 6025.33,3064.83 6025.33,3047.17 6026,3029.5C 6026.28,3030.42 6026.78,3031.08 6027.5,3031.5 Z"></path></g><g><path style="opacity:1" fill="#f5e916" d="M 5421.5,3056.5 C 5431.09,3057.98 5440.76,3058.81 5450.5,3059C 5453.35,3059.27 5456.02,3060.1 5458.5,3061.5C 5459.54,3073.23 5458.87,3084.9 5456.5,3096.5C 5456.19,3104.06 5459.53,3109.23 5466.5,3112C 5471.08,3113.38 5475.75,3114.38 5480.5,3115C 5538.36,3121.35 5596.19,3127.85 5654,3134.5C 5655.44,3134.44 5656.77,3134.11 5658,3133.5C 5663.98,3119.12 5666.81,3104.12 5666.5,3088.5C 5681.2,3088.5 5695.87,3089.17 5710.5,3090.5C 5707.65,3129.29 5703.48,3167.96 5698,3206.5C 5692.8,3242.85 5687.46,3279.19 5682,3315.5C 5679.14,3337.59 5673.48,3358.93 5665,3379.5C 5644.69,3424.83 5612.19,3436.66 5567.5,3415C 5560,3410.17 5553.83,3404 5549,3396.5C 5543.42,3385.42 5538.42,3374.08 5534,3362.5C 5527.2,3368.3 5520.7,3374.47 5514.5,3381C 5507.07,3386.48 5498.74,3389.81 5489.5,3391C 5467.49,3391.33 5445.49,3391.33 5423.5,3391C 5414.58,3396.09 5413.25,3402.75 5419.5,3411C 5429.57,3415.1 5439.91,3418.44 5450.5,3421C 5452.33,3421.5 5453.5,3422.67 5454,3424.5C 5453.89,3435.07 5452.22,3445.4 5449,3455.5C 5448.17,3456.33 5447.33,3457.17 5446.5,3458C 5423.37,3459.74 5403.21,3452.9 5386,3437.5C 5376.69,3426.24 5371.69,3413.24 5371,3398.5C 5368.63,3367.29 5375.97,3338.63 5393,3312.5C 5405.11,3299.03 5420.28,3291.86 5438.5,3291C 5453.34,3290.56 5468.17,3290.73 5483,3291.5C 5490.54,3291.54 5498.04,3291.04 5505.5,3290C 5514.07,3287.1 5519.57,3281.26 5522,3272.5C 5524.72,3259.97 5526.55,3247.3 5527.5,3234.5C 5527.46,3227.44 5523.8,3223.94 5516.5,3224C 5491.58,3221.15 5466.58,3219.98 5441.5,3220.5C 5437.97,3234.33 5435.31,3248.33 5433.5,3262.5C 5419.41,3261.86 5405.41,3260.36 5391.5,3258C 5390.88,3256.6 5390.55,3255.1 5390.5,3253.5C 5397.79,3189.94 5406.63,3126.6 5417,3063.5C 5417.53,3060.42 5419.03,3058.08 5421.5,3056.5 Z"></path></g><g><path style="opacity:1" fill="#ee1d29" d="M 5575.5,3233.5 C 5599.13,3233.29 5622.29,3235.96 5645,3241.5C 5645.71,3260.12 5643.71,3278.45 5639,3296.5C 5635.69,3309.47 5627.53,3317.31 5614.5,3320C 5603.26,3322.53 5592.26,3321.86 5581.5,3318C 5573.54,3312.59 5568.7,3305.09 5567,3295.5C 5565.85,3280.03 5566.85,3264.69 5570,3249.5C 5570.95,3243.82 5572.78,3238.49 5575.5,3233.5 Z"></path></g><g><path style="opacity:1" fill="#f5e916" d="M 5480.5,3540.5 C 5505.74,3539.37 5525.57,3549.04 5540,3569.5C 5559.81,3609.46 5549.64,3638.96 5509.5,3658C 5464.96,3668.48 5436.8,3651.65 5425,3607.5C 5424.33,3576.49 5438.49,3555.32 5467.5,3544C 5472,3542.96 5476.33,3541.79 5480.5,3540.5 Z"></path></g><g><path style="opacity:1" fill="#f5e916" d="M 499.5,3543.5 C 529.686,3543.67 551.186,3557.33 564,3584.5C 571.489,3611.7 564.323,3634.2 542.5,3652C 508.492,3672.6 478.659,3667.76 453,3637.5C 439.221,3612.64 440.554,3588.64 457,3565.5C 468.574,3552.96 482.74,3545.63 499.5,3543.5 Z"></path></g><g><path style="opacity:1" fill="#f5e916" d="M 5342.5,3696.5 C 5370.56,3695.57 5395.23,3704.07 5416.5,3722C 5423.4,3729.56 5430.24,3737.06 5437,3744.5C 5439.75,3743.41 5442.25,3741.91 5444.5,3740C 5470.96,3712.38 5502.96,3703.04 5540.5,3712C 5576.2,3721.7 5601.36,3743.53 5616,3777.5C 5622.56,3795.37 5624.22,3813.7 5621,3832.5C 5616.35,3853.44 5610.69,3874.11 5604,3894.5C 5592.8,3929.11 5581.8,3963.77 5571,3998.5C 5569.89,4001.89 5568.39,4005.06 5566.5,4008C 5453.06,3974.3 5339.73,3939.63 5226.5,3904C 5222.58,3902.46 5219.08,3900.29 5216,3897.5C 5219.39,3878.6 5224.06,3859.93 5230,3841.5C 5238.86,3816.57 5247.53,3791.57 5256,3766.5C 5271.64,3726.68 5300.47,3703.34 5342.5,3696.5 Z"></path></g><g><path style="opacity:1" fill="#f5e916" d="M 776.5,3701.5 C 782.912,3700.41 786.745,3703.07 788,3709.5C 789.297,3718.29 787.297,3726.29 782,3733.5C 741.667,3795.83 701.333,3858.17 661,3920.5C 659.086,3923.3 658.086,3926.3 658,3929.5C 666.386,3933.97 675.219,3937.47 684.5,3940C 754.052,3961.41 823.718,3982.41 893.5,4003C 899.1,4009.82 901.767,4017.49 901.5,4026C 857.393,4042.48 813.06,4058.15 768.5,4073C 714.244,4093.2 659.91,4113.2 605.5,4133C 587.19,4139.91 568.524,4145.24 549.5,4149C 547.044,4146.59 545.211,4143.76 544,4140.5C 539.255,4126.76 534.421,4113.1 529.5,4099.5C 529.486,4097.41 530.152,4095.57 531.5,4094C 535.221,4091.47 539.221,4089.47 543.5,4088C 602.348,4066.61 661.348,4045.61 720.5,4025C 725.112,4023.36 729.446,4021.19 733.5,4018.5C 732.636,4016.8 731.303,4015.64 729.5,4015C 681.484,3999.33 633.151,3984.66 584.5,3971C 576.473,3964.44 572.64,3955.94 573,3945.5C 599.393,3906.1 625.393,3866.44 651,3826.5C 653.694,3822.12 655.527,3817.45 656.5,3812.5C 653.813,3812.34 651.146,3812.5 648.5,3813C 584.181,3836.83 519.514,3860 454.5,3882.5C 450.88,3880.96 448.38,3878.29 447,3874.5C 439.276,3859.67 434.609,3844 433,3827.5C 433.785,3825.71 434.951,3824.21 436.5,3823C 452.676,3816.27 469.009,3809.94 485.5,3804C 582.787,3770.3 679.787,3736.13 776.5,3701.5 Z"></path></g><g><path style="opacity:1" fill="#00acee" d="M 1668.5,3721.5 C 1694.97,3720.65 1721.31,3722.15 1747.5,3726C 1788.71,3736.52 1828.38,3751.18 1866.5,3770C 1929.49,3796.77 1994.16,3818.77 2060.5,3836C 2118.21,3849.07 2176.54,3853.74 2235.5,3850C 2284.01,3843.46 2331.01,3831.12 2376.5,3813C 2410.34,3798.61 2444.34,3784.61 2478.5,3771C 2525,3753.55 2573,3745.88 2622.5,3748C 2646.1,3750.98 2668.43,3757.98 2689.5,3769C 2709.47,3788.57 2716.3,3812.07 2710,3839.5C 2706.55,3867.07 2695.55,3891.07 2677,3911.5C 2664.01,3925.16 2649.85,3937.33 2634.5,3948C 2606.43,3966.39 2578.1,3984.39 2549.5,4002C 2531.55,4015.62 2513.88,4029.62 2496.5,4044C 2469.85,4070.64 2444.69,4098.47 2421,4127.5C 2385.24,4171.93 2350.24,4216.93 2316,4262.5C 2296.46,4287.71 2275.79,4312.05 2254,4335.5C 2229.23,4361.28 2202.4,4384.45 2173.5,4405C 2146.85,4422.15 2117.85,4433.48 2086.5,4439C 2028.43,4450.52 1971.43,4446.52 1915.5,4427C 1882.99,4415.84 1854.82,4398 1831,4373.5C 1805.21,4343.33 1801.55,4310.66 1820,4275.5C 1825.76,4266.5 1832.6,4258.33 1840.5,4251C 1863.28,4233.56 1886.61,4216.89 1910.5,4201C 1935.58,4182.85 1959.08,4162.68 1981,4140.5C 2003.46,4116.94 2021.46,4090.28 2035,4060.5C 2043.33,4037.89 2046.33,4014.55 2044,3990.5C 2038.06,3964.11 2024.23,3942.94 2002.5,3927C 1976.13,3909.82 1947.13,3900.48 1915.5,3899C 1899.5,3898.33 1883.5,3898.33 1867.5,3899C 1802.36,3907.5 1737.03,3909.5 1671.5,3905C 1644.83,3902.44 1620.16,3894.11 1597.5,3880C 1582.37,3869.54 1570.87,3856.04 1563,3839.5C 1557.69,3822.8 1558.69,3806.47 1566,3790.5C 1584.21,3757.63 1611.38,3735.79 1647.5,3725C 1654.61,3723.59 1661.61,3722.43 1668.5,3721.5 Z"></path></g><g><path style="opacity:1" fill="#ee1c29" d="M 5344.5,3758.5 C 5362.5,3759.42 5377.66,3766.42 5390,3779.5C 5395.15,3789.92 5396.82,3800.92 5395,3812.5C 5391.18,3834.45 5385.18,3855.78 5377,3876.5C 5375.15,3880.35 5372.15,3882.69 5368,3883.5C 5343.9,3875.8 5319.73,3868.3 5295.5,3861C 5292.75,3859.88 5290.25,3858.38 5288,3856.5C 5287.37,3851.03 5288.03,3845.69 5290,3840.5C 5296.01,3820.8 5303.01,3801.46 5311,3782.5C 5319,3769.98 5330.17,3761.98 5344.5,3758.5 Z"></path></g><g><path style="opacity:1" fill="#ee1c29" d="M 5493.5,3771.5 C 5521.52,3766.11 5543.36,3775.11 5559,3798.5C 5564.83,3809.77 5565.83,3821.44 5562,3833.5C 5553.78,3866.84 5543.94,3899.67 5532.5,3932C 5527.73,3932.31 5523.06,3931.65 5518.5,3930C 5494.04,3922.74 5469.71,3915.07 5445.5,3907C 5440.02,3905.07 5434.85,3902.57 5430,3899.5C 5438.59,3867.52 5448.59,3835.85 5460,3804.5C 5465.84,3787.83 5477,3776.83 5493.5,3771.5 Z"></path></g><g><path style="opacity:1" fill="#f5e916" d="M 5288.5,3972.5 C 5304.91,3973.08 5321.24,3974.58 5337.5,3977C 5356.61,3980.92 5374.61,3987.59 5391.5,3997C 5478.22,4052.49 5506.39,4129.65 5476,4228.5C 5456.42,4278.42 5422.58,4315.25 5374.5,4339C 5338.95,4355.2 5301.95,4360.2 5263.5,4354C 5186.49,4338.66 5135.32,4293.82 5110,4219.5C 5098.97,4180.74 5100.3,4142.41 5114,4104.5C 5120.12,4090.26 5126.79,4076.26 5134,4062.5C 5153.76,4035.4 5177.93,4013.23 5206.5,3996C 5232.43,3982.85 5259.76,3975.02 5288.5,3972.5 Z"></path></g><g><path style="opacity:1" fill="#ee1c29" d="M 5266.5,4037.5 C 5280.17,4037.33 5293.84,4037.5 5307.5,4038C 5309.57,4038.12 5310.91,4039.12 5311.5,4041C 5278.06,4113.71 5242.39,4185.21 5204.5,4255.5C 5199.95,4253.45 5196.12,4250.45 5193,4246.5C 5156.48,4198.54 5152.82,4148.21 5182,4095.5C 5202.51,4064.79 5230.68,4045.46 5266.5,4037.5 Z"></path></g><g><path style="opacity:1" fill="#ee1c29" d="M 5368.5,4059.5 C 5370.31,4059.49 5371.98,4059.99 5373.5,4061C 5389.8,4075.62 5404.3,4091.79 5417,4109.5C 5436.67,4154.5 5433,4197.5 5406,4238.5C 5390.19,4262.62 5368.36,4278.79 5340.5,4287C 5322.52,4292.18 5304.18,4293.84 5285.5,4292C 5277.28,4291.96 5269.28,4290.62 5261.5,4288C 5259.82,4287.65 5258.82,4286.65 5258.5,4285C 5264.03,4269.1 5270.53,4253.6 5278,4238.5C 5306.62,4177.94 5336.78,4118.27 5368.5,4059.5 Z"></path></g><g><path style="opacity:1" fill="#f5e916" d="M 810.5,4102.5 C 890.436,4099.88 951.936,4131.88 995,4198.5C 1034.17,4267.09 1032.83,4334.76 991,4401.5C 939.301,4470.74 870.801,4497.24 785.5,4481C 720.827,4461.99 675.327,4421.49 649,4359.5C 622.012,4276.27 640.846,4205.44 705.5,4147C 730.267,4127.78 757.934,4114.12 788.5,4106C 795.878,4104.22 803.211,4103.06 810.5,4102.5 Z"></path></g><g><path style="opacity:1" fill="#ee1b29" d="M 817.5,4165.5 C 874.471,4160.9 917.638,4182.9 947,4231.5C 966.527,4270.35 967.527,4309.69 950,4349.5C 929.08,4388.23 896.914,4411.73 853.5,4420C 799.507,4430.56 755.674,4414.39 722,4371.5C 711.059,4355.62 703.393,4338.28 699,4319.5C 698.069,4301.46 698.402,4283.46 700,4265.5C 715.649,4219.85 746.149,4188.68 791.5,4172C 800.013,4168.65 808.679,4166.48 817.5,4165.5 Z"></path></g><g><path style="opacity:1" fill="#f5e916" d="M 5054.5,4233.5 C 5070.38,4242.6 5085.38,4252.94 5099.5,4264.5C 5078.49,4296.51 5056.99,4328.18 5035,4359.5C 5034.33,4362.17 5034.33,4364.83 5035,4367.5C 5117.42,4421.58 5199.58,4476.08 5281.5,4531C 5286.53,4534.23 5288.37,4538.73 5287,4544.5C 5279.06,4559.11 5269.56,4572.61 5258.5,4585C 5253.39,4586.11 5248.72,4585.11 5244.5,4582C 5181.14,4540.66 5118.48,4498.32 5056.5,4455C 5038.1,4442.94 5019.43,4431.27 5000.5,4420C 4998.83,4419.33 4997.17,4419.33 4995.5,4420C 4992.68,4422.12 4990.18,4424.62 4988,4427.5C 4971.51,4450.49 4955.51,4473.82 4940,4497.5C 4936.92,4502.59 4933.08,4507.09 4928.5,4511C 4924.38,4512.92 4920.38,4512.58 4916.5,4510C 4904.41,4503.05 4893.58,4494.55 4884,4484.5C 4883.96,4480.94 4884.96,4477.6 4887,4474.5C 4941.88,4393.46 4997.72,4313.13 5054.5,4233.5 Z"></path></g><g><path style="opacity:1" fill="#f5e916" d="M 1096.5,4390.5 C 1100.66,4390.14 1103.83,4391.81 1106,4395.5C 1115,4408.17 1124,4420.83 1133,4433.5C 1133.63,4435.64 1133.3,4437.64 1132,4439.5C 1100.12,4463.72 1067.95,4487.55 1035.5,4511C 1031.38,4514.15 1027.55,4517.65 1024,4521.5C 1023.36,4522.61 1022.86,4523.78 1022.5,4525C 1055.4,4573.07 1090.4,4619.57 1127.5,4664.5C 1162.97,4638.26 1198.97,4612.76 1235.5,4588C 1238.83,4586.09 1242.33,4584.59 1246,4583.5C 1247.94,4584.44 1249.61,4585.77 1251,4587.5C 1256.95,4596.45 1263.28,4605.11 1270,4613.5C 1272.77,4618.04 1275.27,4622.71 1277.5,4627.5C 1275.83,4631.68 1273.16,4635.18 1269.5,4638C 1248.56,4655.47 1226.56,4671.47 1203.5,4686C 1131.21,4740.15 1058.21,4793.31 984.5,4845.5C 971.369,4831.87 959.536,4817.2 949,4801.5C 948.48,4799.71 948.813,4798.04 950,4796.5C 953.867,4792.3 958.033,4788.47 962.5,4785C 995.553,4760.28 1028.89,4735.95 1062.5,4712C 1067.67,4707.66 1072.67,4703.16 1077.5,4698.5C 1046.8,4653.77 1014.63,4610.1 981,4567.5C 978.312,4564.73 975.646,4562.06 973,4559.5C 964.322,4563.52 956.155,4568.35 948.5,4574C 912.361,4600.9 875.695,4627.07 838.5,4652.5C 824.758,4638.93 813.092,4623.76 803.5,4607C 808.5,4600.67 814.167,4595 820.5,4590C 846.343,4570.13 872.676,4551.13 899.5,4533C 964.527,4484.5 1030.19,4437 1096.5,4390.5 Z"></path></g><g><path style="opacity:1" fill="#f5e916" d="M 4786.5,4595.5 C 4789.93,4595.55 4792.93,4596.71 4795.5,4599C 4880.51,4682.01 4964.84,4765.68 5048.5,4850C 5036.03,4866.3 5021.7,4880.8 5005.5,4893.5C 4965.54,4855.04 4926.04,4816.04 4887,4776.5C 4844.01,4818.32 4801.51,4860.65 4759.5,4903.5C 4796.13,4939.63 4832.63,4975.96 4869,5012.5C 4870.64,5014.98 4872.48,5017.31 4874.5,5019.5C 4863.09,5036.08 4848.92,5049.75 4832,5060.5C 4830.51,5059.68 4829.01,5058.85 4827.5,5058C 4752.03,4984.2 4676.86,4910.03 4602,4835.5C 4592.28,4825.61 4583.11,4815.28 4574.5,4804.5C 4586.68,4789.67 4599.68,4775.5 4613.5,4762C 4614.5,4761.33 4615.5,4761.33 4616.5,4762C 4647.17,4791.33 4677.17,4821.33 4706.5,4852C 4710.36,4855.36 4714.36,4858.52 4718.5,4861.5C 4723.31,4857.86 4727.98,4854.02 4732.5,4850C 4753.5,4829.67 4774.5,4809.33 4795.5,4789C 4812.68,4771.99 4829.68,4754.82 4846.5,4737.5C 4812.85,4704.68 4779.68,4671.35 4747,4637.5C 4746.58,4635.21 4747.25,4633.21 4749,4631.5C 4761.04,4618.96 4773.54,4606.96 4786.5,4595.5 Z"></path></g><g><path style="opacity:1" fill="#f5e916" d="M 1312.5,4652.5 C 1315.14,4652.95 1317.47,4654.12 1319.5,4656C 1368.61,4701.77 1416.44,4748.94 1463,4797.5C 1467.02,4802.02 1470.86,4806.69 1474.5,4811.5C 1464.98,4824.52 1453.65,4835.69 1440.5,4845C 1439.24,4845.98 1437.91,4846.32 1436.5,4846C 1423.83,4834.67 1411.17,4823.33 1398.5,4812C 1372.6,4785.43 1346.1,4759.6 1319,4734.5C 1266.6,4783.23 1215.1,4833.06 1164.5,4884C 1144.17,4903 1123.83,4922 1103.5,4941C 1101.28,4942.73 1098.94,4944.23 1096.5,4945.5C 1091.12,4942.96 1086.12,4939.8 1081.5,4936C 1071.83,4926.33 1062.17,4916.67 1052.5,4907C 1092.53,4866.64 1132.86,4826.64 1173.5,4787C 1219.73,4741.94 1266.06,4697.1 1312.5,4652.5 Z"></path></g><g><path style="opacity:1" fill="#f5e916" d="M 4541.5,4830.5 C 4545.3,4831.78 4548.47,4834.11 4551,4837.5C 4600.33,4902.17 4649.67,4966.83 4699,5031.5C 4721.05,5060.55 4742.72,5089.89 4764,5119.5C 4764.82,5121.7 4764.32,5123.53 4762.5,5125C 4750.66,5131.84 4739.66,5139.84 4729.5,5149C 4725.39,5151.39 4721.06,5153.22 4716.5,5154.5C 4712.59,5152.09 4709.09,5149.09 4706,5145.5C 4658.85,5083.86 4612.18,5021.86 4566,4959.5C 4541.34,4930.18 4519.01,4899.18 4499,4866.5C 4498.33,4865.17 4498.33,4863.83 4499,4862.5C 4504.37,4856.9 4510.54,4852.4 4517.5,4849C 4525.11,4842.2 4533.11,4836.04 4541.5,4830.5 Z"></path></g><g><path style="opacity:1" fill="#f5e916" d="M 1469.5,4875.5 C 1549.86,4866.98 1614.69,4894.31 1664,4957.5C 1701.33,5012.1 1708.99,5070.77 1687,5133.5C 1657.73,5203.08 1605.56,5242.92 1530.5,5253C 1504.92,5254.76 1479.58,5253.09 1454.5,5248C 1432.81,5240.49 1412.14,5230.82 1392.5,5219C 1360.24,5193.42 1336.41,5161.58 1321,5123.5C 1314.38,5103.88 1311.54,5083.72 1312.5,5063C 1311.15,5038.29 1314.98,5014.46 1324,4991.5C 1353.72,4929.28 1402.22,4890.61 1469.5,4875.5 Z"></path></g><g><path style="opacity:1" fill="#ee1b29" d="M 1489.5,4934.5 C 1545.39,4930.53 1588.89,4951.53 1620,4997.5C 1637.44,5028.08 1641.44,5060.41 1632,5094.5C 1609.83,5161.67 1563.33,5195.17 1492.5,5195C 1446.65,5189.18 1411.81,5166.68 1388,5127.5C 1376.26,5105.23 1371.93,5081.56 1375,5056.5C 1382.92,5003.58 1411.09,4965.75 1459.5,4943C 1469.37,4939.2 1479.37,4936.37 1489.5,4934.5 Z"></path></g><g><path style="opacity:1" fill="#f5e916" d="M 4262.5,5036.5 C 4265.14,5036.95 4267.47,5038.12 4269.5,5040C 4274.03,5044.2 4278.2,5048.7 4282,5053.5C 4303.03,5082.89 4325.03,5111.55 4348,5139.5C 4374.23,5119.97 4400.73,5100.8 4427.5,5082C 4453.13,5065.59 4481.13,5057.93 4511.5,5059C 4554.24,5065.45 4585.4,5087.95 4605,5126.5C 4608.06,5133.01 4610.72,5139.67 4613,5146.5C 4619.65,5184.31 4610.98,5217.97 4587,5247.5C 4578.13,5256.04 4568.96,5264.2 4559.5,5272C 4519.56,5302.61 4479.06,5332.44 4438,5361.5C 4425.86,5348.36 4414.86,5334.36 4405,5319.5C 4342.7,5238.92 4281.37,5157.59 4221,5075.5C 4219,5072.83 4219,5070.17 4221,5067.5C 4233.04,5054.61 4246.87,5044.27 4262.5,5036.5 Z"></path></g><g><path style="opacity:1" fill="#f5e916" d="M 1826.5,5064.5 C 1889.5,5097.17 1952.17,5130.67 2014.5,5165C 2017.82,5167.32 2020.82,5169.99 2023.5,5173C 1965.78,5276.26 1908.95,5380.09 1853,5484.5C 1851.56,5486.45 1849.73,5487.78 1847.5,5488.5C 1828.8,5481.93 1811.96,5472.27 1797,5459.5C 1797.57,5452.33 1799.9,5445.66 1804,5439.5C 1844.41,5366.34 1885.08,5293.34 1926,5220.5C 1930.78,5211.28 1935.28,5201.95 1939.5,5192.5C 1939.47,5190.97 1938.8,5189.8 1937.5,5189C 1911.97,5173.07 1885.64,5158.4 1858.5,5145C 1856.25,5143.85 1853.91,5143.52 1851.5,5144C 1834.73,5170.44 1817.56,5196.6 1800,5222.5C 1786.72,5240.78 1773.05,5258.78 1759,5276.5C 1738.47,5299.38 1715.3,5318.88 1689.5,5335C 1680.19,5340.16 1670.52,5344.49 1660.5,5348C 1635.63,5352.39 1610.63,5353.39 1585.5,5351C 1583,5349.92 1580.67,5348.59 1578.5,5347C 1575.04,5346.82 1571.71,5346.15 1568.5,5345C 1567.06,5340.34 1567.56,5335.84 1570,5331.5C 1576.45,5318.76 1583.29,5306.26 1590.5,5294C 1611.74,5297.13 1632.41,5294.79 1652.5,5287C 1662.69,5282.08 1672.36,5276.41 1681.5,5270C 1709.07,5245.44 1732.57,5217.61 1752,5186.5C 1774.53,5150.95 1795.86,5114.61 1816,5077.5C 1819.03,5072.77 1822.53,5068.44 1826.5,5064.5 Z"></path></g><g><path style="opacity:1" fill="#f5e916" d="M 4192.5,5077.5 C 4193.55,5077.35 4194.55,5077.52 4195.5,5078C 4197.12,5080.08 4198.62,5082.25 4200,5084.5C 4255.08,5189.16 4307.91,5294.99 4358.5,5402C 4358.24,5403.26 4357.57,5404.26 4356.5,5405C 4341.18,5414.66 4324.85,5422.16 4307.5,5427.5C 4305.81,5427.24 4304.31,5426.57 4303,5425.5C 4298.6,5419.43 4294.6,5413.1 4291,5406.5C 4255,5333.17 4219,5259.83 4183,5186.5C 4177.8,5175.93 4171.97,5165.76 4165.5,5156C 4158.73,5157.7 4152.06,5160.04 4145.5,5163C 4122.74,5173.22 4100.4,5184.22 4078.5,5196C 4075.65,5198.56 4074.82,5201.73 4076,5205.5C 4110.2,5269.42 4131.53,5337.42 4140,5409.5C 4141.07,5440.14 4134.74,5469.14 4121,5496.5C 4108.91,5513.26 4094.74,5528.09 4078.5,5541C 4076.64,5542.3 4074.64,5542.63 4072.5,5542C 4062.67,5526.17 4054,5509.67 4046.5,5492.5C 4054.2,5484.3 4061.37,5475.63 4068,5466.5C 4078.69,5444.68 4082.36,5421.68 4079,5397.5C 4074.28,5366.94 4066.28,5337.28 4055,5308.5C 4036.1,5264.02 4016.1,5220.02 3995,5176.5C 3994.33,5175.17 3994.33,5173.83 3995,5172.5C 4061.09,5141.2 4126.93,5109.54 4192.5,5077.5 Z"></path></g><g><path style="opacity:0.662" fill="#04aded" d="M 5210.5,5092.5 C 5212.03,5092.52 5212.53,5093.18 5212,5094.5C 5188.22,5118.28 5164.39,5142.11 5140.5,5166C 5137.6,5168.41 5134.6,5170.58 5131.5,5172.5C 5156.53,5147.14 5181.53,5121.81 5206.5,5096.5C 5207.17,5096.5 5207.5,5096.17 5207.5,5095.5C 5208.17,5095.5 5208.5,5095.17 5208.5,5094.5C 5209.17,5094.5 5209.5,5094.17 5209.5,5093.5C 5210.17,5093.5 5210.5,5093.17 5210.5,5092.5 Z"></path></g><g><path style="opacity:1" fill="#f5e916" d="M 3828.5,5115.5 C 3852.67,5110.86 3868.5,5120.19 3876,5143.5C 3878.64,5165.04 3869.81,5179.87 3849.5,5188C 3829.62,5192.31 3813.79,5186.15 3802,5169.5C 3796.7,5150.07 3801.53,5133.57 3816.5,5120C 3820.43,5117.97 3824.43,5116.47 3828.5,5115.5 Z"></path></g><g><path style="opacity:1" fill="#ee1c29" d="M 4475.5,5119.5 C 4515.08,5114.18 4540.24,5130.51 4551,5168.5C 4553.5,5183.07 4551.17,5196.73 4544,5209.5C 4538.87,5215.64 4533.37,5221.47 4527.5,5227C 4506.5,5242.67 4485.5,5258.33 4464.5,5274C 4459.25,5277.44 4454.25,5277.1 4449.5,5273C 4446.33,5269.83 4443.17,5266.67 4440,5263.5C 4425.05,5242.88 4409.72,5222.55 4394,5202.5C 4390,5197.17 4386.5,5191.5 4383.5,5185.5C 4385.27,5182.23 4387.6,5179.4 4390.5,5177C 4411.22,5161.28 4432.22,5145.95 4453.5,5131C 4460.48,5126.34 4467.82,5122.51 4475.5,5119.5 Z"></path></g><g><path style="opacity:1" fill="#f5e916" d="M 3704.5,5159.5 C 3726.36,5159 3740.86,5169 3748,5189.5C 3750.15,5213 3739.99,5228.17 3717.5,5235C 3692.36,5237.18 3676.86,5226.02 3671,5201.5C 3671.22,5185.91 3678.05,5174.07 3691.5,5166C 3695.93,5163.79 3700.26,5161.62 3704.5,5159.5 Z"></path></g><g><path style="opacity:1" fill="#f5e916" d="M 3909.5,5212.5 C 3913.6,5211.77 3917.1,5212.77 3920,5215.5C 3926.54,5230.29 3931.71,5245.29 3935.5,5260.5C 3929.28,5264.78 3922.61,5268.28 3915.5,5271C 3901.98,5274.76 3888.65,5279.09 3875.5,5284C 3845.73,5295.59 3815.73,5306.59 3785.5,5317C 3779.64,5319.18 3774.14,5322.01 3769,5325.5C 3768.83,5326.33 3768.67,5327.17 3768.5,5328C 3777.24,5352.32 3786.41,5376.49 3796,5400.5C 3797.04,5402.59 3798.54,5404.25 3800.5,5405.5C 3840.84,5391.66 3881.18,5377.83 3921.5,5364C 3923.97,5363.29 3926.3,5363.63 3928.5,5365C 3930.38,5367.25 3931.88,5369.75 3933,5372.5C 3936.07,5383.37 3939.73,5394.04 3944,5404.5C 3944.77,5407.1 3944.6,5409.6 3943.5,5412C 3902.57,5427.31 3861.74,5442.81 3821,5458.5C 3828.31,5487.09 3837.64,5515.09 3849,5542.5C 3850.95,5547.36 3853.45,5551.86 3856.5,5556C 3859.55,5558.17 3862.88,5558.84 3866.5,5558C 3909.49,5542.34 3952.49,5526.67 3995.5,5511C 4006.83,5506.89 4018.33,5503.39 4030,5500.5C 4031.44,5500.56 4032.77,5500.89 4034,5501.5C 4041.55,5516.27 4047.72,5531.61 4052.5,5547.5C 4050.66,5550.49 4047.99,5552.66 4044.5,5554C 3979.19,5576.88 3914.19,5600.55 3849.5,5625C 3838.95,5629.72 3827.95,5632.06 3816.5,5632C 3814.26,5629.97 3812.76,5627.47 3812,5624.5C 3774.67,5524.5 3737.33,5424.5 3700,5324.5C 3696.62,5314.82 3693.79,5304.99 3691.5,5295C 3691.76,5293.74 3692.43,5292.74 3693.5,5292C 3699.17,5289.67 3704.83,5287.33 3710.5,5285C 3777.13,5261.29 3843.47,5237.13 3909.5,5212.5 Z"></path></g><g><path style="opacity:1" fill="#f5e916" d="M 2275.5,5272.5 C 2317.16,5271.2 2356.5,5280.03 2393.5,5299C 2449.58,5332.61 2481.42,5382.11 2489,5447.5C 2492.85,5517.27 2467.35,5573.44 2412.5,5616C 2340.07,5662.19 2266.41,5664.19 2191.5,5622C 2138.26,5589.38 2108.43,5541.88 2102,5479.5C 2101.33,5464.5 2101.33,5449.5 2102,5434.5C 2107.29,5404.29 2118.62,5376.62 2136,5351.5C 2147.47,5339.03 2159.3,5326.86 2171.5,5315C 2191.15,5298.67 2213.49,5287.34 2238.5,5281C 2250.83,5277.57 2263.17,5274.74 2275.5,5272.5 Z"></path></g><g><path style="opacity:1" fill="#f5e916" d="M 3485.5,5331.5 C 3513.95,5331.01 3542.28,5332.51 3570.5,5336C 3642.84,5358.67 3689.01,5406.5 3709,5479.5C 3722.88,5562.19 3695.72,5627.35 3627.5,5675C 3559.76,5716.17 3490.42,5719.17 3419.5,5684C 3393.86,5666.03 3371.02,5644.86 3351,5620.5C 3326.9,5575.9 3319.23,5528.57 3328,5478.5C 3337.59,5442.47 3355.09,5410.97 3380.5,5384C 3411.19,5357.99 3446.19,5340.49 3485.5,5331.5 Z"></path></g><g><path style="opacity:1" fill="#ee1c29" d="M 2270.5,5332.5 C 2291.95,5331.71 2313.29,5332.88 2334.5,5336C 2360.1,5345.53 2381.93,5360.36 2400,5380.5C 2417.51,5402.87 2425.68,5428.2 2424.5,5456.5C 2422.81,5457.97 2420.81,5458.64 2418.5,5458.5C 2347.49,5437.44 2276.49,5416.27 2205.5,5395C 2201.27,5393.89 2197.27,5392.22 2193.5,5390C 2192.11,5389.04 2191.44,5387.71 2191.5,5386C 2194.21,5378.61 2198.55,5372.28 2204.5,5367C 2223.87,5350.48 2245.87,5338.98 2270.5,5332.5 Z"></path></g><g><path style="opacity:1" fill="#f5e916" d="M 2546.5,5343.5 C 2553.53,5343.5 2560.53,5344 2567.5,5345C 2599.74,5350.06 2632.07,5354.4 2664.5,5358C 2686.86,5361.45 2708.2,5368.12 2728.5,5378C 2778.55,5416.59 2787.38,5463.09 2755,5517.5C 2749.29,5524.04 2743.46,5530.37 2737.5,5536.5C 2748.39,5544.88 2758.56,5554.22 2768,5564.5C 2777.74,5575.32 2783.74,5587.99 2786,5602.5C 2788.4,5625.59 2785.4,5647.93 2777,5669.5C 2758.79,5704.34 2729.96,5723.17 2690.5,5726C 2673.17,5726.67 2655.83,5726.67 2638.5,5726C 2634.5,5724.67 2630.5,5723.33 2626.5,5722C 2616.47,5721.71 2606.47,5721.05 2596.5,5720C 2562.82,5714.46 2529.15,5708.96 2495.5,5703.5C 2495.38,5695.13 2495.88,5686.8 2497,5678.5C 2512.99,5566.73 2529.49,5455.06 2546.5,5343.5 Z"></path></g><g><path style="opacity:1" fill="#f5e916" d="M 3143.5,5371.5 C 3182.75,5371.13 3219.42,5380.96 3253.5,5401C 3269.34,5411.52 3283.51,5424.02 3296,5438.5C 3299.38,5442.25 3300.71,5446.58 3300,5451.5C 3287.79,5463.88 3274.29,5474.55 3259.5,5483.5C 3247.31,5472.81 3234.98,5462.31 3222.5,5452C 3190.91,5431.35 3156.58,5425.01 3119.5,5433C 3070.35,5445.99 3038.51,5476.82 3024,5525.5C 3015.23,5568.64 3023.23,5608.31 3048,5644.5C 3079.88,5680.91 3120.05,5696.08 3168.5,5690C 3183.49,5689.42 3197.49,5685.42 3210.5,5678C 3216.7,5674.07 3223.04,5670.4 3229.5,5667C 3243.5,5653.68 3256,5639.18 3267,5623.5C 3282.85,5632.75 3298.18,5642.75 3313,5653.5C 3314.3,5655.36 3314.63,5657.36 3314,5659.5C 3282.98,5709.62 3238.15,5739.12 3179.5,5748C 3109.04,5757.52 3049.54,5736.69 3001,5685.5C 2967.23,5646.18 2952.23,5600.52 2956,5548.5C 2957.53,5515.11 2967.87,5484.78 2987,5457.5C 3025.55,5404.47 3077.72,5375.8 3143.5,5371.5 Z"></path></g><g><path style="opacity:1" fill="#ee1b29" d="M 3498.5,5388.5 C 3536.67,5384.79 3571,5394.29 3601.5,5417C 3612.57,5427.06 3621.73,5438.56 3629,5451.5C 3633.74,5461.32 3638.74,5470.99 3644,5480.5C 3644.67,5505.17 3644.67,5529.83 3644,5554.5C 3636.95,5581.77 3622.45,5604.27 3600.5,5622C 3586.16,5633.17 3570.16,5641.17 3552.5,5646C 3492.75,5659.34 3445.59,5641.17 3411,5591.5C 3391.79,5560.34 3384.79,5526.67 3390,5490.5C 3404.78,5433.55 3440.95,5399.55 3498.5,5388.5 Z"></path></g><g><path style="opacity:1" fill="#ee1c29" d="M 2602.5,5408.5 C 2629.62,5409.19 2656.28,5413.02 2682.5,5420C 2707.98,5432.8 2715.81,5452.63 2706,5479.5C 2696.59,5499.05 2680.92,5508.38 2659,5507.5C 2638.5,5504.8 2618,5501.97 2597.5,5499C 2594.74,5498.47 2592.07,5497.63 2589.5,5496.5C 2588.7,5486.81 2589.2,5477.14 2591,5467.5C 2593.74,5448.45 2596.74,5429.45 2600,5410.5C 2600.99,5409.93 2601.83,5409.27 2602.5,5408.5 Z"></path></g><g><path style="opacity:1" fill="#ee1c29" d="M 2170.5,5443.5 C 2250.73,5465.86 2330.57,5489.52 2410,5514.5C 2410.67,5516.5 2410.67,5518.5 2410,5520.5C 2393.5,5554.85 2367,5577.68 2330.5,5589C 2286.05,5599.53 2246.05,5590.86 2210.5,5563C 2185.77,5543.04 2171.27,5517.21 2167,5485.5C 2165.62,5475.53 2165.29,5465.53 2166,5455.5C 2166.43,5451.04 2167.93,5447.04 2170.5,5443.5 Z"></path></g><g><path style="opacity:1" fill="#ee1c29" d="M 2578.5,5551.5 C 2610.41,5556.49 2642.41,5560.99 2674.5,5565C 2682.05,5566.95 2689.39,5569.28 2696.5,5572C 2723.02,5589.23 2730.52,5612.73 2719,5642.5C 2712,5659.83 2699.17,5669 2680.5,5670C 2666.5,5671.93 2652.5,5671.93 2638.5,5670C 2614.16,5665.67 2589.83,5661.33 2565.5,5657C 2564.51,5650.22 2564.67,5643.38 2566,5636.5C 2569.75,5608.05 2573.92,5579.72 2578.5,5551.5 Z"></path></g></svg>